<?xml version="1.0" standalone="no"?>
<!DOCTYPE svg PUBLIC "-//W3C//DTD SVG 1.1//EN" "http://www.w3.org/Graphics/SVG/1.1/DTD/svg11.dtd" >
<svg xmlns="http://www.w3.org/2000/svg">
<metadata>Generated by IcoMoon</metadata>
<defs>
<font id="bdp-icon" horiz-adv-x="1024">
<font-face units-per-em="1024" ascent="877.8572825024438" descent="-146.14271749755622" />
<missing-glyph horiz-adv-x="1024" />
<glyph unicode="&#x20;" horiz-adv-x="256.25024437927664" d="" />
<glyph unicode="&#xe900;" glyph-name="bdp-icon-bgl1" d="M160.156 594.737c-17.69 0-32.031 14.341-32.031 32.031s14.341 32.031 32.031 32.031c17.69 0 32.031-14.341 32.031-32.031s-14.341-32.031-32.031-32.031zM288.282 594.737c-17.69 0-32.031 14.341-32.031 32.031s14.341 32.031 32.031 32.031c17.69 0 32.031-14.341 32.031-32.031s-14.341-32.031-32.031-32.031zM416.407 594.737c-17.69 0-32.031 14.341-32.031 32.031s14.341 32.031 32.031 32.031c17.69 0 32.031-14.341 32.031-32.031s-14.341-32.031-32.031-32.031zM64.063 530.674h896.876v-64.063h-896.876v64.063zM64.063 722.862v-768.751h896.876v768.751h-896.876zM0 786.925h1025.001v-896.876h-1025.001v896.876zM297.122 156.165c0-33.783-10.912-60.166-32.736-79.149s-48.431-28.476-79.822-28.476c-17.34 0-32.437 2.541-45.292 7.623s-25.113 13.453-36.772 25.113l41.256 40.808c11.959-11.959 25.561-17.938 40.808-17.938 15.546 0 27.803 4.634 36.772 13.902s13.453 22.87 13.453 40.808v211.663h62.333v-214.353zM589.504 370.518l-105.831-319.288h-46.638l-105.383 319.288h64.575l64.127-208.075 64.127 208.075h65.023zM917.312 51.23h-62.333v186.102l-60.988-121.078h-42.153l-61.436 121.078v-186.102h-62.333v319.288h61.436l83.409-172.649 82.961 172.649h61.436v-319.288z" />
<glyph unicode="&#xe901;" glyph-name="bdp-icon-log" d="M160.156 594.737c-17.69 0-32.031 14.341-32.031 32.031s14.341 32.031 32.031 32.031c17.69 0 32.031-14.341 32.031-32.031s-14.341-32.031-32.031-32.031zM288.282 594.737c-17.69 0-32.031 14.341-32.031 32.031s14.341 32.031 32.031 32.031c17.69 0 32.031-14.341 32.031-32.031s-14.341-32.031-32.031-32.031zM416.407 594.737c-17.69 0-32.031 14.341-32.031 32.031s14.341 32.031 32.031 32.031c17.69 0 32.031-14.341 32.031-32.031s-14.341-32.031-32.031-32.031zM64.063 530.674h896.876v-64.063h-896.876v64.063zM64.063 722.862v-768.751h896.876v768.751h-896.876zM0 786.925h1025.001v-896.876h-1025.001v896.876zM335.303 51.102h-207.178v319.288h62.333v-263.682h144.845v-55.606zM598.985 250.657c0.299-8.371 0.448-21.674 0.448-39.911s-0.149-31.54-0.448-39.911c-0.299-8.371-1.345-18.759-3.139-31.166s-5.008-22.945-9.641-31.615c-4.634-8.669-10.838-16.891-18.61-24.664-23.319-23.319-52.019-34.978-86.1-34.978-34.381 0-63.23 11.659-86.549 34.978-7.773 7.773-13.902 15.92-18.386 24.44s-7.623 19.208-9.417 32.063c-1.794 12.856-2.84 23.17-3.139 30.942s-0.448 21.077-0.448 39.911c0 18.834 0.149 32.138 0.448 39.911s1.345 18.087 3.139 30.942c1.794 12.856 4.933 23.543 9.417 32.063s10.613 16.667 18.386 24.44c23.319 23.319 52.168 34.978 86.549 34.978 34.081 0 62.781-11.659 86.1-34.978 7.773-7.773 13.977-15.995 18.61-24.664s7.848-19.208 9.641-31.615c1.794-12.407 2.84-22.795 3.139-31.166zM533.961 148.413c2.093 11.659 3.139 32.437 3.139 62.333s-1.046 50.598-3.139 62.109c-2.093 11.51-6.278 20.703-12.556 27.579-9.866 11.36-23.17 17.041-39.911 17.041-17.041 0-30.494-5.681-40.359-17.041-6.278-6.876-10.389-15.995-12.332-27.355s-2.915-32.138-2.915-62.333c0-30.194 0.972-50.973 2.915-62.333s6.054-20.479 12.332-27.355c9.866-11.36 23.319-17.041 40.359-17.041 16.741 0 30.045 5.681 39.911 17.041 6.278 6.876 10.463 15.995 12.556 27.355zM890.47 182.046c0-23.319-2.317-42.452-6.951-57.4s-12.481-28.252-23.543-39.911c-23.916-24.216-53.962-36.323-90.136-36.323-34.081 0-62.781 11.659-86.1 34.978-13.752 13.752-22.422 29.746-26.009 47.983-3.588 17.938-5.381 44.395-5.381 79.374s1.794 61.436 5.381 79.374c3.588 18.237 12.257 34.23 26.009 47.983 23.319 23.319 52.019 34.978 86.1 34.978 34.381 0 61.884-9.566 82.513-28.7s33.184-43.648 37.669-73.544h-62.781c-7.773 31.091-26.906 46.638-57.4 46.638-16.741 0-30.045-5.681-39.911-17.041-6.278-7.773-10.389-17.116-12.332-28.027s-2.915-31.466-2.915-61.66c0-30.793 0.972-51.645 2.915-62.557s6.054-20.105 12.332-27.579c9.268-11.062 22.571-16.592 39.911-16.592 18.535 0 33.334 5.979 44.395 17.938 9.566 11.062 14.35 25.262 14.35 42.602v12.108h-58.745v52.019h120.63v-46.638z" />
<glyph unicode="&#xe902;" glyph-name="bdp-icon-bgl" d="M960.938 338.487h-96.094v416.407h-704.688v-832.813h352.344v-96.094h-384.375c-35.381 0-64.063 28.682-64.063 64.063v896.876c0 35.381 28.682 64.063 64.063 64.063h768.751c35.381 0 64.063-28.682 64.063-64.063v-448.438zM1025.001 131.502c-95.615-84.752-0.583-163.7-0.583-163.7s-0.583-0.572-36.422-59.533c-125.877 34.537-149.187-82.282-149.187-82.282h-74.307c-36.664 127.121-148.594 80.59-148.594 80.59l-39.346 62.342c101.375 92.645 0.053 160.865 0 160.899 0.036 0.034 1.309 1.918 38.754 62.056 129.508-34.72 149.761 82.551 149.761 82.551h73.436c23.606-117.088 150.36-82.836 150.36-82.836s-0.592-1.115 36.127-60.087zM800.777-45.889c53.064 0 96.099 43.014 96.099 96.089s-43.036 96.099-96.099 96.099c-53.064 0-96.089-43.026-96.089-96.099s43.034-96.089 96.089-96.089zM256.25 210.362h256.25v-96.094h-256.25v96.094zM256.25 402.549h384.375v-96.094h-384.375v96.094zM256.25 594.737h512.5v-96.094h-512.5v96.094z" />
<glyph unicode="&#xe903;" glyph-name="bdp-icon-ide" d="M48.634 454.828l322.877 332.096c64.846-66.698 64.846-174.829 0-241.525l-322.877-332.096c-64.845 66.697-64.846 174.829 0 241.525zM180.721 318.969l176.116-181.144c64.845-66.697 64.845-174.829 0-241.525l-293.525 301.906 117.41 120.763zM976.367 222.145l-322.877-332.096c-64.845 66.697-64.845 174.829 0 241.525l322.877 332.096c64.845-66.697 64.845-174.829 0-241.525zM844.281 358.002l-176.116 181.144c-64.845 66.697-64.845 174.829 0 241.525l293.525-301.906-117.41-120.763zM429.479 328.866c0-22.997-18.584-41.641-41.51-41.641s-41.51 18.643-41.51 41.641c0 22.997 18.584 41.641 41.51 41.641s41.51-18.643 41.51-41.641zM554.013 328.866c0-22.997-18.584-41.641-41.51-41.641s-41.51 18.643-41.51 41.641c0 22.997 18.584 41.641 41.51 41.641s41.51-18.643 41.51-41.641zM678.545 328.866c0-22.997-18.584-41.641-41.51-41.641s-41.51 18.643-41.51 41.641c0 22.997 18.584 41.641 41.51 41.641s41.51-18.643 41.51-41.641z" />
<glyph unicode="&#xe904;" glyph-name="bdp-icon-sjzd" d="M928.907-75.186c-5.009-1.771-10.4-2.734-16.016-2.734h-864.845c-26.536 0-48.047 21.511-48.047 48.047v768.751c0 26.536 21.511 48.047 48.047 48.047h672.657c26.536 0 48.047-21.511 48.047-48.047s-21.511-48.047-48.047-48.047h-624.61v-672.657h800.782v336.328c0 26.536 21.511 48.047 48.047 48.047s48.047-21.511 48.047-48.047v-384.375c0-26.536-21.511-48.047-48.047-48.047-5.615 0-11.007 0.963-16.016 2.734zM190.68 228.75c3.146-0.144 6.832 0.189 10.389-0.879 2.23-0.67 3.714 0.253 5.223 1.843l-0.005-0.006c30.305 31.896 60.635 63.767 90.992 95.614 18.103 18.991 36.267 37.919 54.385 56.893 28.094 29.418 56.131 58.893 84.276 88.26 15.738 16.421 35.892 16.798 52.407 1.147 34.465-32.662 68.938-65.314 103.298-98.085 2.647-2.525 4.139-2.565 6.85-0.138 52.075 46.612 104.236 93.125 156.381 139.655 15.481 13.814 30.908 27.693 46.508 41.372 2.834 2.484 2.852 3.851 0.199 6.533-12.027 12.158-23.876 24.493-35.67 36.877-18.472 19.4-10.6 50.082 15.2 57.211 19.799 5.469 40.002 9.483 60.027 14.134 39.555 9.188 79.129 18.287 118.658 27.583 21.766 5.12 40.567-6.73 44.52-28.329 0.926-5.058 0.058-9.952-1.23-14.763-15.739-58.79-31.407-117.602-47.378-176.329-7.289-26.808-38.606-35.181-58.387-15.608-14.041 13.893-27.565 28.315-41.092 42.715-2.908 3.096-4.501 2.717-7.43 0.097-60.995-54.564-122.088-109.019-183.16-163.497-15.61-13.925-31.228-27.838-46.82-41.783-15.31-13.693-34.774-13.303-49.691 0.842-34.092 32.328-68.286 64.552-102.342 96.919-2.384 2.265-3.619 2.299-5.89-0.090-49.435-51.971-98.951-103.864-148.447-155.779-17.988-18.866-35.924-37.781-53.996-56.566-2.314-2.406-2.969-4.369-2.085-7.814 11.853-46.208-25.593-89.912-73.071-85.49-31.511 2.933-56.864 27.375-61.414 59.204-5.923 41.426 26.541 78.626 68.785 78.251l0.006 0.006z" />
<glyph unicode="&#xe905;" glyph-name="bdp-icon-zbzx" d="M335.908 224.132c-10.065 25.486-15.595 53.259-15.595 82.323 0 44.526 12.98 86.022 35.361 120.909l-57.373 57.373c-22.154-11.578-47.353-18.127-74.081-18.127-88.452 0-160.156 71.704-160.156 160.156s71.704 160.156 160.156 160.156c88.452 0 160.156-71.704 160.156-160.156 0-26.728-6.547-51.928-18.127-74.081l57.373-57.373c34.887 22.382 76.383 35.361 120.909 35.361 12.173 0 24.12-0.97 35.767-2.837l41.587 51.355c-28.048 28.846-45.322 68.226-45.322 111.638 0 88.452 71.704 160.156 160.156 160.156s160.156-71.704 160.156-160.156c0-88.452-71.704-160.156-160.156-160.156-9.704 0-19.208 0.863-28.436 2.516l-34.96-43.172c57.712-40.567 95.427-107.66 95.427-183.563 0-44.526-12.98-86.022-35.361-120.909l57.373-57.373c22.154 11.578 47.353 18.127 74.081 18.127 88.452 0 160.156-71.704 160.156-160.156s-71.704-160.156-160.156-160.156c-88.452 0-160.156 71.704-160.156 160.156 0 26.728 6.547 51.928 18.127 74.081l-57.373 57.373c-34.887-22.382-76.383-35.361-120.909-35.361-59.982 0-114.463 23.553-154.698 61.914l-73.271-59.333c2.455-11.146 3.75-22.728 3.75-34.613 0-88.452-71.704-160.156-160.156-160.156s-160.156 71.704-160.156 160.156c0 88.452 71.704 160.156 160.156 160.156 41.388 0 79.111-15.7 107.535-41.469l68.216 55.24zM736.719 626.768c35.381 0 64.063 28.682 64.063 64.063s-28.682 64.063-64.063 64.063c-35.381 0-64.063-28.682-64.063-64.063s28.682-64.063 64.063-64.063zM544.532 178.33c70.761 0 128.125 57.364 128.125 128.125s-57.364 128.125-128.125 128.125c-70.761 0-128.125-57.364-128.125-128.125s57.364-128.125 128.125-128.125zM864.845-77.92c35.381 0 64.063 28.682 64.063 64.063s-28.682 64.063-64.063 64.063c-35.381 0-64.063-28.682-64.063-64.063s28.682-64.063 64.063-64.063zM224.219 562.706c35.381 0 64.063 28.682 64.063 64.063s-28.682 64.063-64.063 64.063c-35.381 0-64.063-28.682-64.063-64.063s28.682-64.063 64.063-64.063zM160.156-13.857c35.381 0 64.063 28.682 64.063 64.063s-28.682 64.063-64.063 64.063c-35.381 0-64.063-28.682-64.063-64.063s28.682-64.063 64.063-64.063z" />
<glyph unicode="&#xe906;" glyph-name="bdp-icon-zcgl" d="M96.094 754.893v-192.188h832.813v192.188h-832.813zM64.063 850.987h896.876c35.381 0 64.063-28.682 64.063-64.063v-256.25c0-35.381-28.682-64.063-64.063-64.063h-896.876c-35.381 0-64.063 28.682-64.063 64.063v256.25c0 35.381 28.682 64.063 64.063 64.063zM64.063 402.549h896.876c35.381 0 64.063-28.682 64.063-64.063v-256.25c0-35.381-28.682-64.063-64.063-64.063h-896.876c-35.381 0-64.063 28.682-64.063 64.063v256.25c0 35.381 28.682 64.063 64.063 64.063zM96.094 306.456v-192.188h832.813v192.188h-832.813zM48.047-77.92h928.907c26.536 0 48.047-21.511 48.047-48.047s-21.511-48.047-48.047-48.047h-928.907c-26.536 0-48.047 21.511-48.047 48.047s21.511 48.047 48.047 48.047zM224.219 242.393h128.125c17.69 0 32.031-14.341 32.031-32.031s-14.341-32.031-32.031-32.031h-128.125c-17.69 0-32.031 14.341-32.031 32.031s14.341 32.031 32.031 32.031zM224.219 690.831h128.125c17.69 0 32.031-14.341 32.031-32.031v0c0-17.69-14.341-32.031-32.031-32.031h-128.125c-17.69 0-32.031 14.341-32.031 32.031v0c0 17.69 14.341 32.031 32.031 32.031z" />
<glyph unicode="&#xe907;" glyph-name="ide-cfg" d="M181.060 747.432c-16.665 0-30.176-13.51-30.176-30.176v-301.187h-60.353v-423.549h60.353v-59.853c0-16.665 13.51-30.176 30.176-30.176h603.531c16.665 0 30.176 13.51 30.176 30.176v59.853l60.353-0.121v423.256h-60.353v156.208c0 7.855-3.062 15.399-8.536 21.032l-141.305 145.394c-5.683 5.847-13.487 9.145-21.64 9.145h-462.226zM181.060 807.785h462.226c24.458 0 47.875-9.897 64.92-27.436l141.305-145.394c16.422-16.897 25.609-39.533 25.609-63.095v-639.197c0-49.999-40.532-90.529-90.529-90.529h-603.531c-49.999 0-90.529 40.532-90.529 90.529v784.59c0 49.999 40.532 90.529 90.529 90.529zM633.708 566.372h180.347v-60.353h-240.7v240.979h60.353zM0 415.49h965.65v-422.472h-965.65v422.472zM338.166 253.798h58.514c-3.206 31.127-13.526 52.837-30.96 65.128s-39.844 18.436-67.232 18.436c-32.195 0-57.445-10.42-75.748-31.261s-27.454-50.031-27.454-87.571c0-33.264 8.283-60.318 24.848-81.158s42.415-31.261 77.552-31.261c35.135 0 61.653 12.491 79.556 37.474 11.222 15.497 17.501 31.929 18.836 49.296h-58.314c-1.202-11.489-4.609-20.84-10.22-28.054s-15.097-10.822-28.456-10.822c-18.836 0-31.662 9.085-38.476 27.254-3.741 9.753-5.61 22.644-5.61 38.676 0 16.832 1.871 30.327 5.61 40.479 7.081 19.105 20.24 28.656 39.478 28.656 13.493 0 23.446-4.408 29.858-13.226 4.408-6.545 7.147-13.895 8.216-22.044zM516.514 412.107c-31.662 0-51.633-6.545-59.917-19.638-7.883-8.818-11.824-24.915-11.824-48.294v-14.028h-31.261v-40.278h31.862v-176.144h56.912v176.144h37.474v40.278h-37.474v18.436c0 4.275 1.435 8.183 4.308 11.722s8.083 5.21 15.63 5.010c7.547-0.2 12.926-0.5 16.132-0.902v46.49c-5.077 0.4-9.085 0.702-12.024 0.902s-6.212 0.3-9.82 0.3zM652.179 337.361c-29.658 0-52.569-11.055-68.734-33.164s-24.248-49.396-24.248-81.86c0-33.666 8.383-60.351 25.15-80.056s39.176-29.558 67.232-29.558c18.169 0 32.931 4.341 44.286 13.026 6.279 4.677 12.157 11.689 17.634 21.042v-14.028c0-20.84-2.271-35.67-6.814-44.486-6.947-13.759-20.707-20.64-41.28-20.64-14.561 0-24.915 2.606-31.060 7.816-3.608 2.939-6.212 7.749-7.816 14.428h-62.122c1.871-21.775 11.622-38.141 29.258-49.096s40.411-16.432 68.334-16.432c46.224 0 77.485 12.29 93.783 36.872 9.485 14.295 14.228 35.537 14.228 63.724v207.204h-55.508v-31.462c-8.549 15.363-19.771 25.917-33.666 31.662-8.149 3.339-17.701 5.010-28.656 5.010zM666.407 160.615c13.359 0 24.648 5.043 33.866 15.13s13.827 26.152 13.827 48.194c0 20.707-4.375 36.472-13.126 47.292s-20.473 16.232-35.168 16.232c-20.040 0-33.866-9.418-41.481-28.256-4.008-10.020-6.012-22.377-6.012-37.072 0-12.691 2.137-23.979 6.412-33.866 7.749-18.436 21.642-27.654 41.682-27.654z" />
<glyph unicode="&#xe908;" glyph-name="ide-conf" d="M181.060 747.432c-16.665 0-30.176-13.51-30.176-30.176v-301.187h-60.353v-423.549h60.353v-59.853c0-16.665 13.51-30.176 30.176-30.176h603.531c16.665 0 30.176 13.51 30.176 30.176v59.853l60.353-0.121v423.256h-60.353v156.208c0 7.855-3.062 15.399-8.536 21.032l-141.305 145.394c-5.683 5.847-13.487 9.145-21.64 9.145h-462.226zM181.060 807.785h462.226c24.458 0 47.875-9.897 64.92-27.436l141.305-145.394c16.422-16.897 25.609-39.533 25.609-63.095v-639.197c0-49.999-40.532-90.529-90.529-90.529h-603.531c-49.999 0-90.529 40.532-90.529 90.529v784.59c0 49.999 40.532 90.529 90.529 90.529zM633.708 566.372h180.347v-60.353h-240.7v240.979h60.353zM0 415.49h965.65v-422.472h-965.65v422.472zM222.081 197.565h60.236c-3.3 32.043-13.925 54.39-31.871 67.042s-41.016 18.979-69.209 18.979c-33.143 0-59.136-10.726-77.976-32.18s-28.262-51.502-28.262-90.147c0-34.243 8.526-62.092 25.579-83.546s43.664-32.18 79.832-32.18c36.168 0 63.467 12.859 81.895 38.576 11.552 15.954 18.016 32.868 19.391 50.747h-60.030c-1.237-11.828-4.745-21.454-10.52-28.88s-15.54-11.14-29.293-11.14c-19.391 0-32.593 9.351-39.607 28.054-3.851 10.040-5.777 23.311-5.777 39.813 0 17.328 1.926 31.217 5.777 41.67 7.288 19.666 20.834 29.499 40.639 29.499 13.891 0 24.136-4.537 30.737-13.614 4.537-6.74 7.357-14.302 8.457-22.691zM520.622 165.384c0 32.456-9.488 60.579-28.468 84.37s-47.79 35.688-86.433 35.688c-38.645 0-67.455-11.896-86.433-35.688s-28.468-51.916-28.468-84.37c0-33.005 9.488-61.233 28.468-84.681s47.79-35.171 86.433-35.171c38.645 0 67.455 11.723 86.433 35.171s28.468 51.673 28.468 84.681zM669.195 283.585c-18.565 0-33.899-4.537-46.002-13.614-6.74-5.088-13.891-13.408-21.454-24.96v32.799h-56.728v-224.438h58.585v121.709c0 13.891 1.926 25.305 5.777 34.242 7.426 16.916 21.111 25.374 41.051 25.374 16.228 0 27.23-5.777 33.005-17.328 3.163-6.326 4.745-15.402 4.745-27.23v-136.767h60.236v151.414c0 28.193-7.391 48.373-22.176 60.544s-33.796 18.257-57.039 18.257zM867.481 360.53c-32.594 0-53.153-6.739-61.679-20.216-8.114-9.077-12.171-25.648-12.171-49.716v-14.44h-32.18v-41.462h32.799v-181.325h58.585v181.325h38.576v41.462h-38.576v18.979c0 4.4 1.477 8.423 4.434 12.068s8.32 5.363 16.091 5.157c7.771-0.206 13.305-0.517 16.606-0.928v47.859c-5.226 0.412-9.351 0.723-12.377 0.928s-6.394 0.309-10.108 0.309zM405.516 94.835c17.191 0 30.393 6.12 39.607 18.36s13.82 29.636 13.82 52.19c0 22.554-4.606 39.916-13.82 52.087s-22.416 18.257-39.607 18.257c-17.191 0-30.428-6.085-39.71-18.257s-13.925-29.533-13.925-52.087c0-22.554 4.642-39.951 13.925-52.19s22.519-18.36 39.71-18.36z" />
<glyph unicode="&#xe909;" glyph-name="ide-ini" d="M181.060 747.432c-16.665 0-30.176-13.51-30.176-30.176v-301.187h-60.353v-423.549h60.353v-59.853c0-16.665 13.51-30.176 30.176-30.176h603.531c16.665 0 30.176 13.51 30.176 30.176v59.853l60.353-0.121v423.256h-60.353v156.208c0 7.855-3.062 15.399-8.536 21.032l-141.305 145.394c-5.683 5.847-13.487 9.145-21.64 9.145h-462.226zM181.060 807.785h462.226c24.458 0 47.875-9.897 64.92-27.436l141.305-145.394c16.422-16.897 25.609-39.533 25.609-63.095v-639.197c0-49.999-40.532-90.529-90.529-90.529h-603.531c-49.999 0-90.529 40.532-90.529 90.529v784.59c0 49.999 40.532 90.529 90.529 90.529zM633.708 566.372h180.347v-60.353h-240.7v240.979h60.353zM0 415.49h965.65v-422.472h-965.65v422.472zM335.567 323.016v58.129h-63.874v-58.129h63.874zM271.692 294.283v-240.911h63.874v240.911h-63.874zM530.064 300.029c-19.891 0-36.32-4.863-49.287-14.587-7.22-5.451-14.883-14.366-22.985-26.743v35.142h-60.78v-240.47h62.769v130.401c0 14.883 2.063 27.111 6.188 36.69 7.957 18.124 22.617 27.186 43.983 27.186 17.387 0 29.174-6.188 35.364-18.565 3.388-6.779 5.084-16.502 5.084-29.174v-146.536h64.538v162.228c0 30.205-7.92 51.83-23.759 64.869s-36.21 19.56-61.113 19.56zM737.823 323.016v58.129h-63.874v-58.129h63.874zM673.948 294.283v-240.911h63.874v240.911h-63.874z" />
<glyph unicode="&#xe90a;" glyph-name="ide-json" d="M181.060 747.432c-16.665 0-30.176-13.51-30.176-30.176v-301.187h-60.353v-423.549h60.353v-59.853c0-16.665 13.51-30.176 30.176-30.176h603.531c16.665 0 30.176 13.51 30.176 30.176v59.853l60.353-0.121v423.256h-60.353v156.208c0 7.855-3.062 15.399-8.536 21.032l-141.305 145.394c-5.683 5.847-13.487 9.145-21.64 9.145h-462.226zM181.060 807.785h462.226c24.458 0 47.875-9.897 64.92-27.436l141.305-145.394c16.422-16.897 25.609-39.533 25.609-63.095v-639.197c0-49.999-40.532-90.529-90.529-90.529h-603.531c-49.999 0-90.529 40.532-90.529 90.529v784.59c0 49.999 40.532 90.529 90.529 90.529zM633.708 566.372h180.347v-60.353h-240.7v240.979h60.353zM0 415.49h965.65v-422.472h-965.65v422.472zM146.721 358.201v52.702h-57.112v-52.702h57.112zM62.157 71.842v-45.69c5.077-0.133 9.318-0.267 12.724-0.4s5.979-0.2 7.716-0.2c25.383 0 42.415 5.277 51.1 15.83s13.026 26.852 13.026 48.896v240.87h-57.112v-239.868c0-7.883-1.435-13.193-4.308-15.932s-7.114-4.108-12.724-4.108c-1.069 0-2.271 0.033-3.608 0.1s-3.608 0.233-6.814 0.5zM245.515 183.46h-57.914c0-22.444 8.183-40.913 24.548-55.408s41.715-21.742 76.048-21.742c33.666 0 58.547 6.847 74.646 20.54s24.148 31.362 24.148 53.004c0 16.432-5.61 30.125-16.832 41.080-11.355 10.822-28.389 18.903-51.1 24.248-34.066 7.481-53.906 12.757-59.516 15.83-5.61 2.939-8.416 7.682-8.416 14.228 0 5.21 2.639 9.753 7.916 13.626s14.128 5.812 26.552 5.812c15.097 0 25.783-3.875 32.062-11.622 3.339-4.275 5.41-10.087 6.212-17.434h57.112c-2.537 26.719-12.391 45.521-29.558 56.41s-39.376 16.332-66.63 16.332c-28.723 0-51-7.247-66.83-21.742s-23.746-31.829-23.746-52.002c0-17.101 5.077-30.191 15.23-39.276 10.153-9.218 27.587-16.9 52.302-23.045 34.334-8.149 54.173-13.895 59.516-17.234s8.016-8.216 8.016-14.628c0-6.681-3.306-11.689-9.92-15.030s-15.53-5.010-26.752-5.010c-19.105 0-32.195 3.808-39.276 11.422-4.008 4.275-6.612 11.489-7.816 21.642zM639.082 222.537c0 31.529-9.218 58.847-27.654 81.96s-46.423 34.668-83.964 34.668c-37.541 0-65.528-11.555-83.964-34.668s-27.654-50.431-27.654-81.96c0-32.062 9.218-59.483 27.654-82.26s46.423-34.166 83.964-34.166c37.541 0 65.528 11.389 83.964 34.166s27.654 50.198 27.654 82.26zM800.998 337.361c-18.036 0-32.931-4.408-44.688-13.226-6.545-4.943-13.493-13.026-20.84-24.248v31.862h-55.108v-218.026h56.912v118.23c0 13.493 1.871 24.581 5.61 33.264 7.214 16.432 20.507 24.648 39.878 24.648 15.763 0 26.452-5.61 32.062-16.832 3.073-6.145 4.609-14.963 4.609-26.452v-132.86h58.514v147.087c0 27.388-7.181 46.992-21.542 58.814s-32.831 17.734-55.408 17.734zM527.264 154.003c16.699 0 29.525 5.945 38.476 17.834s13.426 28.789 13.426 50.699c0 21.909-4.475 38.776-13.426 50.598s-21.775 17.734-38.476 17.734c-16.699 0-29.558-5.912-38.576-17.734s-13.526-28.689-13.526-50.598c0-21.909 4.508-38.809 13.526-50.699s21.875-17.834 38.576-17.834z" />
<glyph unicode="&#xe90b;" glyph-name="ide-pull" d="M372.909 249.349l454.083 454.083 90.687-90.687-454.083-454.083 173.594-173.594h-437.874v437.874l173.594-173.594z" />
<glyph unicode="&#xe90c;" glyph-name="ide-push" d="M698.741 393.808l-454.083-454.083-90.687 90.687 454.083 454.083-173.594 173.594h437.874v-437.874l-173.594 173.594z" />
<glyph unicode="&#xe90d;" glyph-name="ide-yml" d="M181.060 747.432c-16.665 0-30.176-13.51-30.176-30.176v-301.187h-60.353v-423.549h60.353v-59.853c0-16.665 13.51-30.176 30.176-30.176h603.531c16.665 0 30.176 13.51 30.176 30.176v59.853l60.353-0.121v423.256h-60.353v156.208c0 7.855-3.062 15.399-8.536 21.032l-141.305 145.394c-5.683 5.847-13.487 9.145-21.64 9.145h-462.226zM181.060 807.785h462.226c24.458 0 47.875-9.897 64.92-27.436l141.305-145.394c16.422-16.897 25.609-39.533 25.609-63.095v-639.197c0-49.999-40.532-90.529-90.529-90.529h-603.531c-49.999 0-90.529 40.532-90.529 90.529v784.59c0 49.999 40.532 90.529 90.529 90.529zM633.708 566.372h180.347v-60.353h-240.7v240.979h60.353zM0 415.49h965.65v-422.472h-965.65v422.472zM156.176 71.842v-45.69c6.145-0.4 10.754-0.635 13.827-0.702s7.147-0.1 12.224-0.1c25.25 0 42.082 4.977 50.498 14.93s19.838 35.636 34.266 77.050l74.946 214.82h-60.718l-45.088-161.114-47.694 161.114h-63.524l80.156-228.045c0.535-1.604-0.635-6.012-3.506-13.226s-5.979-11.957-9.318-14.228c-3.473-2.404-7.749-3.941-12.826-4.609s-10.42-0.869-16.032-0.602l-7.214 0.4zM619.681 336.96c-14.428 0-27.521-3.006-39.276-9.018-11.089-6.012-20.373-15.43-27.854-28.256-4.275 10.687-10.553 19.438-18.836 26.252-10.287 7.347-23.779 11.022-40.479 11.022-17.634 0-31.995-4.275-43.084-12.826-6.279-4.81-12.959-12.893-20.040-24.248v31.862h-55.508v-218.026h57.914v131.456c0 11.891 1.535 20.84 4.609 26.852 5.61 10.553 16.565 15.83 32.864 15.83 14.028 0 23.446-5.277 28.256-15.83 2.673-5.879 4.008-15.297 4.008-28.256v-130.054h57.512v130.054c0 9.753 1.535 18.103 4.609 25.048 6.012 13.093 16.9 19.638 32.664 19.638 13.626 0 22.977-5.077 28.054-15.23 2.673-5.343 4.008-12.157 4.008-20.44v-139.072h58.514l0.4 137.668c0 14.161-0.669 24.915-2.004 32.263-2.137 11.089-6.279 20.44-12.424 28.054-7.614 9.351-16.099 15.899-25.45 19.638s-18.836 5.61-28.456 5.61zM798.83 113.724v295.376h-57.112v-295.376h57.112z" />
<glyph unicode="&#xe90e;" glyph-name="bdp-gd-more-tag" d="M108.105 824.924h810.794c59.704 0 108.105-48.4 108.105-108.105v-810.794c0-59.704-48.4-108.105-108.105-108.105h-810.794c-59.704 0-108.105 48.4-108.105 108.105v810.794c0 59.704 48.4 108.105 108.105 108.105zM243.238 230.341c44.78 0 81.079 36.299 81.079 81.079s-36.299 81.079-81.079 81.079c-44.78 0-81.079-36.299-81.079-81.079s36.299-81.079 81.079-81.079zM513.502 230.341c44.78 0 81.079 36.299 81.079 81.079s-36.299 81.079-81.079 81.079c-44.78 0-81.079-36.299-81.079-81.079s36.299-81.079 81.079-81.079zM783.768 230.341c44.78 0 81.079 36.299 81.079 81.079s-36.299 81.079-81.079 81.079c-44.78 0-81.079-36.299-81.079-81.079s36.299-81.079 81.079-81.079z" />
<glyph unicode="&#xe90f;" glyph-name="zcfx-up" d="M385.503 362.118h-257.002l385.503 385.503 385.503-385.503h-257.002v-514.004h-257.002v514.004z" />
<glyph unicode="&#xe910;" glyph-name="zcfx-more" d="M251.116-16.96l-63.793 63.793 283.16 283.16-283.16 283.16 63.793 63.793 346.953-346.953zM508.118-16.96l-63.793 63.793 283.16 283.16-283.16 283.16 63.793 63.793 346.953-346.953z" />
<glyph unicode="&#xe911;" glyph-name="zcfx-js" d="M341.431 683.974c52.908 10.24 110.432 15.46 172.573 15.46s119.668-5.22 172.573-15.46c52.908-10.24 94.769-24.296 125.489-41.964s46.18-36.744 46.18-57.424v-57.424c0-20.68-15.36-39.756-46.18-57.424s-72.584-31.624-125.489-41.964c-52.908-10.14-110.432-15.26-172.573-15.26s-119.668 5.22-172.573 15.46c-52.908 10.24-94.769 24.296-125.489 41.964-30.82 17.668-46.18 36.744-46.18 57.424v57.424c0 20.68 15.36 39.756 46.18 57.424 30.82 17.468 72.584 31.424 125.489 41.764zM315.531 374.566c61.54-12.852 127.698-19.276 198.474-19.276s136.934 6.424 198.474 19.276c61.54 12.852 110.129 31.824 145.668 56.922v-76.196c0-20.68-15.36-39.756-46.18-57.424s-72.584-31.624-125.489-41.964c-52.806-10.24-110.331-15.36-172.472-15.36s-119.668 5.22-172.573 15.46c-52.908 10.24-94.769 24.296-125.489 41.964-30.82 17.668-46.18 36.744-46.18 57.424v76.196c35.64-25.3 84.228-44.272 145.768-57.024zM315.531 202.396c61.54-12.852 127.698-19.276 198.474-19.276s136.934 6.424 198.474 19.276c61.54 12.852 110.129 31.824 145.668 56.922v-76.196c0-20.68-15.36-39.756-46.18-57.424s-72.584-31.624-125.489-41.964c-52.908-10.34-110.331-15.46-172.472-15.46s-119.668 5.22-172.573 15.46c-52.908 10.24-94.668 24.296-125.489 41.964s-46.18 36.744-46.18 57.424v76.196c35.64-25.097 84.228-44.072 145.768-56.922zM315.531 30.324c61.54-12.852 127.698-19.276 198.474-19.276s136.934 6.424 198.474 19.276c61.54 12.852 110.129 31.824 145.668 56.922v-76.196c0-20.68-15.36-39.756-46.18-57.424s-72.584-31.624-125.489-41.964c-52.908-10.34-110.331-15.36-172.472-15.36s-119.668 5.22-172.573 15.46c-52.908 10.24-94.769 24.296-125.489 41.964-30.82 17.668-46.18 36.744-46.18 57.424v76.196c35.64-25.2 84.228-44.172 145.768-57.024z" />
<glyph unicode="&#xe912;" glyph-name="zcfx-help" d="M514.004-184.011c-266.135 0-481.88 215.744-481.88 481.88s215.744 481.88 481.88 481.88c266.135 0 481.88-215.744 481.88-481.88s-215.744-481.88-481.88-481.88zM514.004-119.761c230.65 0 417.629 186.979 417.629 417.629s-186.979 417.629-417.629 417.629c-230.65 0-417.629-186.979-417.629-417.629s186.979-417.629 417.629-417.629zM506.294 554.87c50.116 0 90.98-13.108 121.82-40.864 30.84-26.984 46.26-63.992 46.26-111.024 0-38.552-10.024-70.161-28.528-94.834-6.94-7.712-29.3-28.528-66.308-60.908-13.88-11.564-23.9-24.672-30.84-38.552-7.712-15.42-11.564-31.612-11.564-50.116v-10.796h-88.666v10.796c0 29.3 4.628 54.74 15.42 75.56 10.024 20.816 40.092 53.2 90.208 97.918l9.252 10.796c13.88 16.964 20.816 35.468 20.816 54.74 0 25.444-7.712 45.488-21.588 60.14-14.648 14.648-35.468 21.588-61.68 21.588-33.924 0-57.824-10.024-72.476-31.612-13.108-17.732-19.276-43.176-19.276-75.56h-87.896c0 57.056 16.192 101.772 50.116 134.156 33.152 32.384 77.872 48.572 134.927 48.572zM492.416 109.999c16.964 0 31.612-5.396 43.176-16.192 10.796-10.796 16.964-24.672 16.964-41.636s-6.168-31.612-17.732-42.404c-11.564-10.796-25.444-16.192-42.404-16.192s-30.84 6.168-42.404 16.964c-11.564 10.796-16.964 24.672-16.964 41.636s5.396 30.84 16.964 41.636c11.564 10.796 25.444 16.192 42.404 16.192z" />
<glyph unicode="&#xe913;" glyph-name="zcfx-down" d="M642.506 233.617h257.002l-385.503-385.503-385.503 385.503h257.002v514.004h257.002v-514.004z" />
<glyph unicode="&#xe914;" glyph-name="ide-bl" d="M0 614.063v171.67h1030.021v-171.67h-1030.021zM0 356.557v171.67h1030.021v-171.67h-1030.021zM0-244.288v515.009h1030.021v-515.009h-1030.021z" />
<glyph unicode="&#xe915;" glyph-name="ide-ckdd" d="M365.333 531.861c52.071 89.309 148.884 149.327 259.718 149.327 165.919 0 300.423-134.504 300.423-300.423 0-110.834-60.018-207.649-149.327-259.718 0.049 2.587 0.073 5.174 0.073 7.772 0 222.635-180.482 403.118-403.118 403.118-2.598 0-5.185-0.024-7.772-0.073zM686.681 141.97c0-165.919-134.504-300.423-300.423-300.423s-300.423 134.504-300.423 300.423c0 165.919 134.504 300.423 300.423 300.423s300.423-134.504 300.423-300.423z" />
<glyph unicode="&#xe916;" glyph-name="ide-hfyx" d="M171.67 699.865h171.67v-858.35h-171.67v858.35zM515.009 699.898l429.175-429.175-429.175-429.175v858.35z" />
<glyph unicode="&#xe917;" glyph-name="ide-rztz" d="M171.67 614.063h686.681v-686.681h-686.681v686.681z" />
<glyph unicode="&#xe918;" glyph-name="ide-rzyx" d="M300.423 699.898v-858.35l515.009 429.175z" />
<glyph unicode="&#xe919;" glyph-name="DD-ZK" d="M998.808 772.644c17.792 0 32.217-10.822 32.217-24.166 0 0 0-16.112 0-48.329 0-13.346-14.425-24.166-32.217-24.166h-966.587c-17.792 0-32.217 10.822-32.217 24.166v48.329c0 13.346 14.425 24.166 32.217 24.166h966.587zM998.808 208.8h-515.512c-17.792 0-32.217 10.822-32.217 24.166v48.329c0 13.346 14.425 24.166 32.217 24.166h515.512c17.792 0 32.217-10.822 32.217-24.166 0 0 0 0 0 0v-48.329c0-13.346-14.425-24.166-32.217-24.166zM32.217-161.725h966.587c17.792 0 32.217-10.822 32.217-24.166 0 0 0 0 0 0v-48.329c0-13.346-14.425-24.166-32.217-24.166 0 0 0 0 0 0h-966.587c-17.792 0-32.217 10.822-32.217 24.166v48.329c0 13.346 14.425 24.166 32.217 24.166zM0 284.774l257.756-165.738v331.411l-257.756-165.673z" />
<glyph unicode="&#xe91a;" glyph-name="DD-SQ" d="M32.217 772.644c-17.792 0-32.217-10.822-32.217-24.166 0 0 0-16.112 0-48.329 0-13.346 14.425-24.166 32.217-24.166h966.587c17.792 0 32.217 10.822 32.217 24.166v48.329c0 13.346-14.425 24.166-32.217 24.166h-966.587zM32.217 208.8h515.512c17.792 0 32.217 10.822 32.217 24.166v48.329c0 13.346-14.425 24.166-32.217 24.166h-515.512c-17.792 0-32.217-10.822-32.217-24.166 0 0 0 0 0 0v-48.329c0-13.346 14.425-24.166 32.217-24.166zM998.808-161.725h-966.587c-17.792 0-32.217-10.822-32.217-24.166 0 0 0 0 0 0v-48.329c0-13.346 14.425-24.166 32.217-24.166 0 0 0 0 0 0h966.587c17.792 0 32.217 10.822 32.217 24.166v48.329c0 13.346-14.425 24.166-32.217 24.166zM1031.028 284.774l-257.756-165.738v331.411l257.756-165.673z" />
<glyph unicode="&#xe91b;" glyph-name="ide-szyl" d="M77.402 682.138h619.222v-490.216h-245.108v-77.402h258.008c35.626 0 64.504 28.878 64.504 64.504v516.016c0 35.626-28.878 64.504-64.504 64.504h-645.022c-35.626 0-64.504-28.878-64.504-64.504v-516.016c0-35.626 28.878-64.504 64.504-64.504h129.004v77.402h-116.104v490.216zM954.633-195.092h-619.222v490.216h245.108v77.402h-258.008c-35.626 0-64.504-28.878-64.504-64.504v-516.016c0-35.626 28.878-64.504 64.504-64.504h645.022c35.626 0 64.504 28.878 64.504 64.504v516.016c0 35.626-28.878 64.504-64.504 64.504h-129.004v-77.402h116.104v-490.216z" />
<glyph unicode="&#xe91c;" glyph-name="bzzx-syb" d="M208.924 229.905c0 15.11 5.767 30.212 17.291 41.743l438.284 438.284c23.050 23.050 60.431 23.050 83.482 0s23.050-60.431 0-83.482l-396.542-396.542 396.542-396.542c23.050-23.050 23.050-60.431 0-83.482s-60.431-23.050-83.482 0l-438.284 438.284c-11.525 11.525-17.291 26.635-17.291 41.743z" />
<glyph unicode="&#xe91d;" glyph-name="bzzx-wc" d="M402.131-72.9c-15.11 0-30.212 5.767-41.743 17.291l-281.754 281.754c-23.050 23.050-23.050 60.431 0 83.482s60.431 23.050 83.482 0l240.012-240.012 500.895 500.895c23.050 23.050 60.431 23.050 83.482 0s23.050-60.431 0-83.482l-542.636-542.636c-11.525-11.525-26.635-17.291-41.743-17.291z" />
<glyph unicode="&#xe91e;" glyph-name="bzzx-xyb" d="M817.318 182.919l-438.284-438.284c-23.050-23.050-60.431-23.050-83.482 0s-23.050 60.431 0 83.482l396.542 396.542-396.542 396.542c-23.050 23.050-23.050 60.431 0 83.482s60.431 23.050 83.482 0l438.284-438.284c23.050-23.050 23.050-60.431 0-83.482z" />
<glyph unicode="&#xe91f;" glyph-name="bdp-icon-tc" d="M120.589 523.288c-25.285-29.323-46.955-60.997-65.005-95.023-18.068-34.025-31.786-70.043-41.178-108.053-9.385-38.009-14.086-76.556-14.086-115.646 0-67.328 12.819-130.494 38.461-189.499 25.642-59 60.316-110.402 104.016-154.193 43.705-43.81 94.992-78.549 153.859-104.254 58.865-25.697 121.895-38.548 189.066-38.548 66.454 0 129.123 12.851 187.989 38.548 58.874 25.704 110.338 60.453 154.401 104.254 44.064 43.794 78.738 95.202 104.016 154.193 25.284 59.005 37.924 122.169 37.924 189.499 0 38.362-4.509 76.013-13.542 112.931-9.033 36.924-21.85 72.033-38.461 105.337-16.618 33.297-37.201 64.428-61.759 93.387-24.563 28.958-52.007 55.023-82.349 78.188-15.887 11.585-33.045 15.929-51.464 13.037-18.416-2.9-33.408-11.952-44.967-27.146-11.56-15.211-15.887-32.213-13.010-51.039 2.899-18.819 11.925-34.031 27.086-45.612 45.5-33.292 80.36-74.194 104.561-122.705 24.193-48.503 36.29-100.629 36.29-156.366 0-47.784-9.026-92.857-27.084-135.208-18.061-42.345-42.798-79.268-74.212-110.76-31.429-31.501-68.267-56.475-110.525-74.931-42.256-18.459-87.217-27.693-134.896-27.693-47.667 0-92.635 9.233-134.892 27.693-42.259 18.457-79.105 43.429-110.52 74.931-31.422 31.494-56.344 68.409-74.758 110.76-18.425 42.349-27.629 87.424-27.629 135.208 0 56.46 13.002 109.852 39.004 160.165 26.002 50.317 62.479 91.755 109.432 124.333 15.886 10.87 25.462 25.705 28.708 44.523 3.254 18.819-0.547 36.198-11.368 52.134-10.846 15.204-25.647 24.436-44.426 27.685-18.778 3.253-36.112-0.54-52.001-11.393-32.516-23.172-61.411-49.421-86.685-78.733zM533.941 221.392c13.362 13.397 20.044 29.51 20.044 48.33v412.657c0 18.819-6.682 35.111-20.044 48.862-13.364 13.752-29.437 20.631-48.222 20.631-19.499 0-35.932-6.879-49.295-20.631-13.361-13.746-20.044-30.038-20.044-48.862v-412.657c0-18.819 6.683-34.931 20.044-48.33 13.363-13.387 29.796-20.086 49.295-20.086 18.782 0 34.858 6.7 48.222 20.086z" />
<glyph unicode="&#xe920;" glyph-name="bzzx-o" d="M906.567 609.842v-777.057h-777.057v777.057h777.057zM906.567 739.35h-777.057c-71.526 0-129.508-57.983-129.508-129.508v-777.057c0-71.526 57.983-129.508 129.508-129.508h777.057c71.526 0 129.508 57.983 129.508 129.508v777.057c0 71.526-57.983 129.508-129.508 129.508zM388.528 142.134l176.327-176.327c10.117-10.117 26.518-10.117 36.632 0l60.157 60.157c10.117 10.117 10.117 26.518 0 36.632l-93.962 93.962h338.886v129.508h-337.065l93.962 93.962c10.117 10.117 10.117 26.518 0 36.632l-60.157 60.157c-10.117 10.117-26.518 10.117-36.632 0l-178.149-178.149v311.174h-129.508v-777.057h129.508v309.351z" />
<glyph unicode="&#xe921;" glyph-name="bzzx-u" d="M129.508 609.842v-777.057h777.057v777.057h-777.057zM129.508 739.35h777.057c71.526 0 129.508-57.983 129.508-129.508v-777.057c0-71.526-57.983-129.508-129.508-129.508h-777.057c-71.526 0-129.508 57.983-129.508 129.508v777.057c0 71.526 57.983 129.508 129.508 129.508zM647.548 142.134l-167.169-167.169c-15.176-15.176-39.776-15.176-54.945 0l-41.844 41.844c-15.176 15.176-15.176 39.776 0 54.945l84.804 84.804h-338.886v129.508h337.065l-84.804 84.804c-15.176 15.176-15.176 39.776 0 54.945l41.844 41.844c15.176 15.176 39.776 15.176 54.945 0l168.992-168.992v311.174h129.508v-777.057h-129.508v309.351z" />
<glyph unicode="&#xe922;" glyph-name="bzzx-cpjc" d="M420.906 480.328h323.774c17.877 0 32.376-14.495 32.376-32.376s-14.495-32.376-32.376-32.376h-323.774c-17.877 0-32.376 14.495-32.376 32.376s14.495 32.376 32.376 32.376zM420.906 286.067h323.774c17.877 0 32.376-14.495 32.376-32.376s-14.495-32.376-32.376-32.376h-323.774c-17.877 0-32.376 14.495-32.376 32.376s14.495 32.376 32.376 32.376zM420.906 91.804h323.774c17.877 0 32.376-14.495 32.376-32.376s-14.495-32.376-32.376-32.376h-323.774c-17.877 0-32.376 14.495-32.376 32.376s14.495 32.376 32.376 32.376zM129.508 674.596v-906.567h777.057v906.567h-777.057zM129.508 739.35h777.057c35.766 0 64.756-28.99 64.756-64.756v-906.567c0-35.766-28.99-64.756-64.756-64.756h-777.057c-35.766 0-64.756 28.99-64.756 64.756v906.567c0 35.766 28.99 64.756 64.756 64.756zM356.15 447.955c0-35.766-28.99-64.756-64.756-64.756s-64.756 28.99-64.756 64.756c0 35.766 28.99 64.756 64.756 64.756s64.756-28.99 64.756-64.756zM356.15 253.69c0-35.766-28.99-64.756-64.756-64.756s-64.756 28.99-64.756 64.756c0 35.766 28.99 64.756 64.756 64.756s64.756-28.99 64.756-64.756zM356.15 59.425c0-35.766-28.99-64.756-64.756-64.756s-64.756 28.99-64.756 64.756c0 35.766 28.99 64.756 64.756 64.756s64.756-28.99 64.756-64.756z" />
<glyph unicode="&#xe923;" glyph-name="bzzx-ckxq" horiz-adv-x="597" d="M497.902 216.054l-444.803 444.803c-14.45 14.45-14.45 37.882 0 52.332s37.882 14.45 52.332 0l470.967-470.967c14.45-14.45 14.45-37.882 0-52.332l-470.967-470.967c-14.45-14.45-37.882-14.45-52.332 0s-14.45 37.882 0 52.332l444.803 444.803z" />
<glyph unicode="&#xe924;" glyph-name="bzzx-kfzzz" d="M291.397 151.030c37.728-13.335 64.756-49.314 64.756-91.605 0-53.643-43.485-97.132-97.132-97.132s-97.132 43.485-97.132 97.132c0 42.291 27.026 78.271 64.756 91.605v296.924c0 17.877 14.495 32.376 32.376 32.376s32.376-14.495 32.376-32.376v-296.924zM259.018 27.049c17.877 0 32.376 14.495 32.376 32.376s-14.495 32.376-32.376 32.376c-17.877 0-32.376-14.495-32.376-32.376s14.495-32.376 32.376-32.376zM809.435 151.030c37.728-13.335 64.756-49.314 64.756-91.605 0-53.643-43.485-97.132-97.132-97.132s-97.132 43.485-97.132 97.132c0 42.291 27.026 78.271 64.756 91.605v296.924c0 17.877 14.495 32.376 32.376 32.376s32.376-14.495 32.376-32.376v-296.924zM777.057 27.049c17.877 0 32.376 14.495 32.376 32.376s-14.495 32.376-32.376 32.376c-17.877 0-32.376-14.495-32.376-32.376s14.495-32.376 32.376-32.376zM485.661 291.595c-37.728 13.335-64.756 49.314-64.756 91.605 0 53.643 43.485 97.132 97.132 97.132s97.132-43.485 97.132-97.132c0-42.291-27.026-78.271-64.756-91.605v-296.924c0-17.877-14.495-32.376-32.376-32.376s-32.376 14.495-32.376 32.376v296.924zM518.036 415.578c-17.877 0-32.376-14.495-32.376-32.376s14.495-32.376 32.376-32.376c17.877 0 32.376 14.495 32.376 32.376s-14.495 32.376-32.376 32.376zM64.756 609.842v-777.057h906.567v777.057h-906.567zM64.756 674.596h906.567c35.766 0 64.756-28.99 64.756-64.756v-777.057c0-35.766-28.99-64.756-64.756-64.756h-906.567c-35.766 0-64.756 28.99-64.756 64.756v777.057c0 35.766 28.99 64.756 64.756 64.756z" />
<glyph unicode="&#xe925;" glyph-name="bzzx-bf" d="M191.866 547.486c-95.368 0-172.679-77.31-172.679-172.679v-306.985c0-95.368 77.31-172.679 172.679-172.679h652.344c95.368 0 172.679 77.31 172.679 172.679v306.985c0 95.368-77.31 172.679-172.679 172.679h-652.344zM191.866 566.671h652.344c105.964 0 191.866-85.901 191.866-191.866v-306.985c0-105.964-85.901-191.866-191.866-191.866h-652.344c-105.964 0-191.866 85.901-191.866 191.866v306.985c0 105.964 85.901 191.866 191.866 191.866zM657.84 188.772l-196.21-122.632c-17.969-11.233-41.646-5.774-52.877 12.204-3.815 6.1-5.837 13.149-5.837 20.341v245.263c0 21.196 17.184 38.37 38.37 38.37 7.192 0 14.241-2.022 20.341-5.837l196.21-122.632c17.969-11.233 23.438-34.908 12.204-52.877-3.088-4.944-7.261-9.116-12.204-12.204z" />
<glyph unicode="&#xe926;" glyph-name="bzzx-yhzn" d="M323.774 674.596h194.265v-64.756h-194.265v64.756zM453.284-231.97v-64.756l-388.221-1.849c-35.766-0.168-64.892 28.685-65.061 64.447 0 0.101-0.001 0.203-0.001 0.304v843.659c0 35.766 28.99 64.756 64.756 64.756h64.756v-64.756h-64.756v-843.968l388.528 2.155zM841.811 219.157h-64.756v390.685h-64.756v64.756h64.756c35.766 0 64.756-28.99 64.756-64.756v-390.685zM226.641 739.35c17.877 0 32.376-14.495 32.376-32.376v-129.508c0-17.877-14.495-32.376-32.376-32.376s-32.376 14.495-32.376 32.376v129.508c0 17.877 14.495 32.376 32.376 32.376zM615.17 739.35c17.877 0 32.376-14.495 32.376-32.376v-129.508c0-17.877-14.495-32.376-32.376-32.376s-32.376 14.495-32.376 32.376v129.508c0 17.877 14.495 32.376 32.376 32.376zM226.641 350.823h388.528c17.877 0 32.376-14.495 32.376-32.376s-14.495-32.376-32.376-32.376h-388.528c-17.877 0-32.376 14.495-32.376 32.376s14.495 32.376 32.376 32.376zM226.641 156.558h259.018c17.877 0 32.376-14.495 32.376-32.376s-14.495-32.376-32.376-32.376h-259.018c-17.877 0-32.376 14.495-32.376 32.376s14.495 32.376 32.376 32.376zM670.528 66.727l-124.201-361.524 356.241 125.991 124.201 361.422-356.241-125.887zM609.929-229.88l93.521 262.981 166.343-168.431-259.865-94.55z" />
<glyph unicode="&#xe927;" glyph-name="bzzx-jxsp" d="M64.756 609.842h906.567c35.766 0 64.756-32.619 64.756-72.85v-631.36c0-40.232-28.99-72.85-64.756-72.85h-906.567c-35.766 0-64.756 32.62-64.756 72.85v631.36c0 40.233 28.99 72.85 64.756 72.85zM64.756 545.087v-647.548h906.567v647.548h-906.567zM719.096 187.9l-270.234-160.354c-18.454-10.955-42.289-4.871-53.242 13.584-3.555 6.003-5.436 12.848-5.436 19.824v320.708c0 21.46 17.396 38.856 38.856 38.856 6.98 0 13.821-1.881 19.824-5.436l270.234-160.354c18.454-10.955 24.538-34.789 13.584-53.242-3.317-5.589-7.994-10.267-13.584-13.584z" />
<glyph unicode="&#xe928;" glyph-name="bzzx-cpjj" d="M874.19-264.347c0-17.877-14.495-32.376-32.376-32.376h-777.057c-17.877 0-32.376 14.495-32.376 32.376v777.057c0 17.877 14.495 32.376 32.376 32.376h453.284c17.877 0 32.376-14.495 32.376-32.376s-14.495-32.376-32.376-32.376h-420.906v-712.304h712.304v420.906c0 17.877 14.495 32.376 32.376 32.376s32.376-14.495 32.376-32.376v-453.284zM545.021 154.91l401.287 401.287-91.577 91.577-401.287-401.287-45.788-137.366 137.366 45.788zM305.269 6.734l91.577 274.731 412.097 412.097c25.291 25.291 66.288 25.291 91.577 0l91.577-91.577c25.291-25.291 25.291-66.288 0-91.577l-412.097-412.097-274.731-91.577zM808.942 601.985l91.577-91.577-45.788-45.788-91.577 91.577 45.788 45.788z" />
<glyph unicode="&#xe929;" glyph-name="bzzx-faq" d="M518.036-296.726c-286.104 0-518.036 231.933-518.036 518.036s231.933 518.036 518.036 518.036c286.104 0 518.036-231.933 518.036-518.036s-231.933-518.036-518.036-518.036zM518.036-235.78c252.446 0 457.093 204.647 457.093 457.093s-204.647 457.093-457.093 457.093c-252.446 0-457.093-204.647-457.093-457.093s204.647-457.093 457.093-457.093zM525.805 508.183c47.85 0 86.328-13.076 115.435-39.217 29.601-25.653 44.396-60.921 44.396-105.814 0-36.012-9.371-66.101-28.115-90.275-6.41-7.897-27.127-27.127-62.156-57.716-13.808-11.346-24.171-24.171-31.076-38.475-7.897-14.307-11.839-30.588-11.839-48.837v-12.577h-79.176v12.577c0 28.614 4.936 52.044 14.795 70.296 9.372 19.73 37.242 50.318 83.615 91.755l12.577 14.063c13.808 17.756 20.717 35.768 20.717 54.016 0 25.156-7.153 45.383-21.461 60.677-14.795 14.795-35.768 22.201-62.895 22.201-33.547 0-57.716-10.602-72.516-31.819-13.32-17.756-19.975-42.92-19.975-75.475h-77.696c0 53.769 15.538 96.194 46.615 127.272 31.076 31.576 73.996 47.357 128.753 47.357zM511.572 53.814c16.419 0 29.605-5.115 39.551-15.344 10.446-9.712 15.669-22.757 15.669-39.125 0-15.344-5.469-28.642-16.419-39.895-10.95-10.229-23.878-15.344-38.809-15.344-15.423 0-28.36 5.367-38.809 16.114s-15.669 23.78-15.669 39.125c0 16.367 5.223 29.409 15.669 39.125 9.954 10.229 22.883 15.344 38.809 15.344z" />
<glyph unicode="&#xe92a;" glyph-name="bzzx-qbcp" horiz-adv-x="1182" d="M74.006 591.34c40.875 0 74.006 33.131 74.006 74.006s-33.131 74.006-74.006 74.006c-40.875 0-74.006-33.131-74.006-74.006s33.131-74.006 74.006-74.006zM74.006 147.306c40.875 0 74.006 33.131 74.006 74.006s-33.131 74.006-74.006 74.006c-40.875 0-74.006-33.131-74.006-74.006s33.131-74.006 74.006-74.006zM74.006-296.726c40.875 0 74.006 33.131 74.006 74.006s-33.131 74.006-74.006 74.006c-40.875 0-74.006-33.131-74.006-74.006s33.131-74.006 74.006-74.006zM1110.084 739.35h-740.055c-40.875 0-74.006-33.131-74.006-74.006s33.131-74.006 74.006-74.006h740.055c40.875 0 74.006 33.131 74.006 74.006s-33.131 74.006-74.006 74.006zM1110.084 295.318h-740.055c-40.875 0-74.006-33.131-74.006-74.006s33.131-74.006 74.006-74.006h740.055c40.875 0 74.006 33.131 74.006 74.006s-33.131 74.006-74.006 74.006zM1110.084-148.715h-740.055c-40.875 0-74.006-33.131-74.006-74.006s33.131-74.006 74.006-74.006h740.055c40.875 0 74.006 33.131 74.006 74.006s-33.131 74.006-74.006 74.006z" />
<glyph unicode="&#xe92b;" glyph-name="bzzx-ss" horiz-adv-x="972" d="M708.899-20.892l210.266-210.266c12.641-12.641 12.641-33.142 0-45.788s-33.142-12.641-45.788 0l-215.264 215.264c-67.543-46.163-149.221-73.156-237.206-73.156-232.46 0-420.906 188.446-420.906 420.906s188.446 420.906 420.906 420.906c232.46 0 420.906-188.446 420.906-420.906 0-121.054-51.105-230.173-132.915-306.959zM420.906-70.083c196.697 0 356.15 159.455 356.15 356.15s-159.455 356.15-356.15 356.15c-196.697 0-356.15-159.455-356.15-356.15s159.455-356.15 356.15-356.15z" />
<glyph unicode="&#xe92c;" glyph-name="bzzx-gn" d="M64.756 577.464v-712.304h906.567v712.304h-906.567zM64.756 642.217h906.567c35.766 0 64.756-28.99 64.756-64.756v-712.304c0-35.766-28.99-64.756-64.756-64.756h-906.567c-35.766 0-64.756 28.99-64.756 64.756v712.304c0 35.766 28.99 64.756 64.756 64.756zM291.397 253.69h453.284c17.877 0 32.376-14.495 32.376-32.376v0c0-17.877-14.495-32.376-32.376-32.376h-453.284c-17.877 0-32.376 14.495-32.376 32.376v0c0 17.877 14.495 32.376 32.376 32.376zM550.415 383.198v-323.774c0-17.877-14.495-32.376-32.376-32.376v0c-17.877 0-32.376 14.495-32.376 32.376v323.774c0 17.877 14.495 32.376 32.376 32.376v0c17.877 0 32.376-14.495 32.376-32.376z" />
<glyph unicode="&#xe92d;" glyph-name="bzzx-alert" d="M518.036-239.165c-254.315 0-460.478 206.163-460.478 460.478s206.163 460.478 460.478 460.478c254.315 0 460.478-206.163 460.478-460.478s-206.163-460.478-460.478-460.478zM518.036 106.194c-31.791 0-57.561-25.77-57.561-57.561s25.77-57.561 57.561-57.561c31.791 0 57.561 25.77 57.561 57.561s-25.77 57.561-57.561 57.561zM518.036 451.553c-31.791 0-57.561-25.77-57.561-57.561v-172.679c0-31.791 25.77-57.561 57.561-57.561s57.561 25.77 57.561 57.561v172.679c0 31.791-25.77 57.561-57.561 57.561z" />
<glyph unicode="&#xe92e;" glyph-name="bzzx-back" d="M518.036-231.969c250.341 0 453.283 202.941 453.283 453.283s-202.941 453.283-453.283 453.283c-250.341 0-453.283-202.941-453.283-453.283s202.941-453.283 453.283-453.283zM518.036 739.35c286.119 0 518.036-231.919 518.036-518.036 0-286.086-231.919-518.036-518.036-518.036-286.086 0-518.036 231.952-518.036 518.036 0 286.119 231.952 518.036 518.036 518.036zM203.751 244.414l223.371 226.349c12.656 12.77 33.152 12.738 45.781 0 12.656-12.77 12.656-33.438 0-46.215l-168.363-170.594h504.895c17.869 0 32.375-14.616 32.375-32.668s-14.505-32.668-32.375-32.668h-504.863l168.363-170.594c12.624-12.738 12.624-33.438 0-46.183-12.656-12.738-33.152-12.738-45.781 0l-223.371 226.349c-6.057 6.082-9.516 14.584-9.516 23.123 0 8.502 3.491 17.012 9.484 23.090z" />
<glyph unicode="&#xe92f;" glyph-name="bzzx-close" d="M518.036 314.563l340.719 340.719c25.75 25.75 67.5 25.75 93.25 0s25.75-67.5 0-93.25l-340.719-340.719 340.719-340.719c25.75-25.75 25.75-67.5 0-93.25s-67.5-25.75-93.25 0l-340.719 340.719-340.719-340.719c-25.75-25.75-67.5-25.75-93.25 0s-25.75 67.5 0 93.25l340.719 340.719-340.719 340.719c-25.75 25.75-25.75 67.5 0 93.25s67.5 25.75 93.25 0l340.719-340.719z" />
<glyph unicode="&#xe930;" glyph-name="bzzx-done" d="M518.036-231.969c-250.341 0-453.283 202.941-453.283 453.283s202.941 453.283 453.283 453.283c250.341 0 453.283-202.941 453.283-453.283s-202.941-453.283-453.283-453.283zM518.036 739.35c-286.119 0-518.036-231.919-518.036-518.036 0-286.086 231.919-518.036 518.036-518.036 286.086 0 518.036 231.952 518.036 518.036 0 286.119-231.952 518.036-518.036 518.036zM285.254 202.269c-12.641 12.641-12.641 33.142 0 45.788s33.142 12.641 45.788 0l147.718-147.718 293.372 293.372c12.641 12.641 33.142 12.641 45.788 0s12.641-33.142 0-45.788l-293.372-293.372c-25.291-25.291-66.288-25.291-91.577 0l-147.718 147.718z" />
<glyph unicode="&#xe931;" glyph-name="bzzx-goon" d="M832.325 244.414l-223.371 226.349c-12.656 12.77-33.152 12.738-45.781 0-12.656-12.77-12.656-33.438 0-46.215l168.363-170.594h-504.895c-17.869 0-32.375-14.616-32.375-32.668s14.505-32.668 32.375-32.668h504.863l-168.363-170.594c-12.624-12.738-12.624-33.438 0-46.183 12.656-12.738 33.152-12.738 45.781 0l223.371 226.349c6.057 6.082 9.516 14.584 9.516 23.123 0 8.502-3.491 17.012-9.484 23.090zM518.036-296.726c-286.104 0-518.036 231.933-518.036 518.036s231.933 518.036 518.036 518.036c286.104 0 518.036-231.933 518.036-518.036s-231.933-518.036-518.036-518.036zM518.036-231.97c250.342 0 453.284 202.941 453.284 453.284s-202.941 453.284-453.284 453.284c-250.342 0-453.284-202.941-453.284-453.284s202.941-453.284 453.284-453.284z" />
<glyph unicode="&#xe932;" glyph-name="bzzx-home" d="M920.956 336.433v-575.598c0-31.791-25.77-57.561-57.561-57.561h-402.918v460.478h-230.24v-460.478h-57.561c-31.791 0-57.561 25.77-57.561 57.561v575.598h-63.118c-19.074 0-34.536 15.462-34.536 34.536 0 11.27 5.494 21.828 14.727 28.292l452.833 316.984c19.816 13.872 46.199 13.872 66.015 0l452.833-316.984c15.624-10.943 19.427-32.473 8.485-48.1-6.459-9.233-17.025-14.727-28.292-14.727h-63.118zM575.598 163.753v-230.24h230.24v230.24h-230.24z" />
<glyph unicode="&#xe933;" glyph-name="bzzx-list" d="M460.478 393.994h345.359v115.119h-575.598v-115.119h115.119v115.119h115.119v-115.119zM345.359 278.873h-115.119v-115.119h115.119v115.119zM460.478 278.873v-115.119h345.359v115.119h-345.359zM345.359 48.634h-115.119v-115.119h115.119v115.119zM460.478 48.634v-115.119h345.359v115.119h-345.359zM115.119 739.35h805.837c63.58 0 115.119-51.54 115.119-115.119v-805.837c0-63.58-51.54-115.119-115.119-115.119h-805.837c-63.58 0-115.119 51.54-115.119 115.119v805.837c0 63.58 51.54 115.119 115.119 115.119z" />
<glyph unicode="&#xe934;" glyph-name="ide-icon-zk" d="M593.202 745.447l170.546-170.546-214.294-212.811 105.295-105.295 212.811 214.294 170.546-170.546v444.901h-444.901zM444.901-292.657l-170.546 170.546 214.294 212.811-105.295 105.295-212.811-214.294-170.546 170.546v-444.901h444.901z" />
<glyph unicode="&#xe935;" glyph-name="ide-icon-sq" d="M994.354 256.796l-170.546 170.546 214.294 212.811-105.295 105.295-212.811-214.294-170.546 170.546v-444.901h444.901zM43.748 195.993l170.546-170.546-214.294-212.811 105.295-105.295 212.811 214.294 170.546-170.546v444.901h-444.901z" />
<glyph unicode="&#xe936;" glyph-name="gd-pl" d="M441.006-9.702l-220.503-220.503v220.503h-73.502c-81.186 0-147.002 65.814-147.002 147.002v441.006c0 81.186 65.814 147.002 147.002 147.002h735.011c81.186 0 147.002-65.814 147.002-147.002v-441.006c0-81.186-65.814-147.002-147.002-147.002h-441.006zM514.506 284.302c40.595 0 73.502 32.907 73.502 73.502s-32.907 73.502-73.502 73.502c-40.595 0-73.502-32.907-73.502-73.502s32.907-73.502 73.502-73.502zM808.511 284.302c40.595 0 73.502 32.907 73.502 73.502s-32.907 73.502-73.502 73.502c-40.595 0-73.502-32.907-73.502-73.502s32.907-73.502 73.502-73.502zM220.503 284.302c40.595 0 73.502 32.907 73.502 73.502s-32.907 73.502-73.502 73.502c-40.595 0-73.502-32.907-73.502-73.502s32.907-73.502 73.502-73.502z" />
<glyph unicode="&#xe937;" glyph-name="bdp-icon-tjzfblb" d="M194.835 634.837c-17.929 0-32.472-14.537-32.472-32.472v-779.338c0-17.929 14.537-32.472 32.472-32.472h649.449c17.929 0 32.472 14.537 32.472 32.472v779.338c0 17.929-14.537 32.472-32.472 32.472h-64.088l-13.946 64.945h-492.45l-14.026-64.945h-64.945zM194.835 699.783h649.449c53.8 0 97.417-43.614 97.417-97.417v-779.338c0-53.8-43.614-97.417-97.417-97.417h-649.449c-53.8 0-97.417 43.614-97.417 97.417v779.338c0 53.8 43.614 97.417 97.417 97.417zM724.331 53.422v-165.451h-84.82v165.921h42.408l-160.584 1.783 158.803 158.803 162.362-162.362-118.173 1.305zM389.669 732.254h259.778c35.871 0 64.945-29.074 64.945-64.945s-29.074-64.945-64.945-64.945h-259.778c-35.871 0-64.945 29.074-64.945 64.945s29.074 64.945 64.945 64.945zM292.252 472.476h454.615c17.929 0 32.472-14.537 32.472-32.472s-14.537-32.472-32.472-32.472h-454.615c-17.929 0-32.472 14.537-32.472 32.472s14.537 32.472 32.472 32.472zM292.252 342.585h454.615c17.929 0 32.472-14.537 32.472-32.472s-14.537-32.472-32.472-32.472h-454.615c-17.929 0-32.472 14.537-32.472 32.472s14.537 32.472 32.472 32.472zM292.252 212.696h194.835c17.929 0 32.472-14.537 32.472-32.472s-14.537-32.472-32.472-32.472h-194.835c-17.929 0-32.472 14.537-32.472 32.472s14.537 32.472 32.472 32.472zM292.252 82.807h129.889c17.929 0 32.472-14.537 32.472-32.472s-14.537-32.472-32.472-32.472h-129.889c-17.929 0-32.472 14.537-32.472 32.472s14.537 32.472 32.472 32.472zM292.252-47.086h194.835c17.929 0 32.472-14.537 32.472-32.472s-14.537-32.472-32.472-32.472h-194.835c-17.929 0-32.472 14.537-32.472 32.472s14.537 32.472 32.472 32.472z" />
<glyph unicode="&#xe938;" glyph-name="bdp-icon-jrcts" d="M519.556-280.885c-272.597 0-493.581 220.984-493.581 493.581s220.984 493.581 493.581 493.581c272.597 0 493.581-220.984 493.581-493.581s-220.984-493.581-493.581-493.581zM519.556-202.952c229.556 0 415.648 186.091 415.648 415.648s-186.091 415.648-415.648 415.648c-229.556 0-415.648-186.091-415.648-415.648s186.091-415.648 415.648-415.648zM433.562 435.665l312.348-238.727-312.348-238.727z" />
<glyph unicode="&#xe939;" glyph-name="ide-left-arrow-down" d="M555.969 30.633l-137.748-0.017 68.882 68.882 68.865-68.865zM418.221 30.616l137.748 0.017-68.865 68.865-68.882-68.882zM108.221 409.501v0c-19.019-19.019-19.019-49.861 0-68.882l378.865-378.865 378.874 378.874c19.014 19.014 19.014 49.847 0 68.865v0c-19.014 19.014-49.847 19.014-68.865 0l-309.992-309.992-310 310c-19.019 19.019-49.861 19.019-68.882 0z" />
<glyph unicode="&#xe93a;" glyph-name="ide-pop-down" d="M389.669 147.751h259.778v519.556h-259.778v-519.556zM519.556-246.536l394.285 394.285h-788.57z" />
<glyph unicode="&#xe93b;" glyph-name="ide-pop-up" d="M389.669 277.639h259.778v-519.556h-259.778v519.556zM519.556 671.925l394.285-394.285h-788.57z" />
<glyph unicode="&#xe93c;" glyph-name="ide-kfzy" d="M33.162-198.054c0-42.068 34.647-76.166 77.381-76.166h818.028c42.736 0 77.381 34.099 77.381 76.166v228.497h-229.979c-6.248 0-12.209-2.61-16.4-7.166l-67.17-73.112c-23.049-25.089-55.818-39.407-90.19-39.407h-164.904c-34.11 0-66.654 14.107-89.687 38.869l-68.602 73.755c-4.187 4.497-10.108 7.069-16.31 7.069h-229.55v-228.497zM1039.119 57.452v-255.509c0-60.093-49.492-108.808-110.545-108.808h-818.028c-61.052 0-110.545 48.713-110.545 108.808v255.509c-0.001 0.113-0.001 0.227 0 0.34v5.284h0.397l32.82 387.624c0.764 8.987 8.777 15.655 17.896 14.907s15.903-8.632 15.152-17.619l-32.59-384.915h229.032c15.504 0 30.294-6.407 40.767-17.665l68.602-73.755c16.748-18.008 40.416-28.265 65.228-28.265h164.904c24.994 0 48.826 10.411 65.593 28.665l67.17 73.112c10.476 11.405 25.375 17.908 40.998 17.908h229.46l-32.59 384.915c-0.764 8.987 6.024 16.866 15.152 17.619s17.147-5.93 17.896-14.907l32.82-387.624h0.397v-5.284c0.001-0.114 0.001-0.227 0-0.34zM193.454 699.611v-516.838c0-9.018-7.421-16.324-16.58-16.324s-16.58 7.306-16.58 16.324v533.162c0 9.018 7.421 16.324 16.58 16.324h553.313c4.163 0 8.176-1.534 11.238-4.316l132.062-119.786c3.402-3.090 5.342-7.439 5.342-12.008v-413.376c0-9.018-7.421-16.324-16.58-16.324s-16.58 7.306-16.58 16.324v406.221l-121.956 110.618h-530.255zM370.064 487.432h287.936c9.018 0 16.324-7.306 16.324-16.324s-7.306-16.324-16.324-16.324h-287.936c-9.018 0-16.324 7.306-16.324 16.324s7.306 16.324 16.324 16.324zM370.064 313.344h287.936c9.018 0 16.324-7.306 16.324-16.324s-7.306-16.324-16.324-16.324h-287.936c-9.018 0-16.324 7.306-16.324 16.324s7.306 16.324 16.324 16.324z" />
<glyph unicode="&#xe93d;" glyph-name="ide-jszc" d="M72.009-262.109c-0.050 0-0.090-0.040-0.090-0.090s0.040-0.090 0.090-0.090h911.050c0.050 0 0.090 0.040 0.090 0.090s-0.040 0.090-0.090 0.090h-911.050zM493.217-27.105h68.637v-200.549h421.208c19.080 0 34.547-15.467 34.547-34.547s-15.467-34.547-34.547-34.547h-911.050c-19.080 0-34.547 15.467-34.547 34.547s15.467 34.547 34.547 34.547h421.208v200.549zM94.704 31.914c0-22.201 17.995-40.198 40.198-40.198h796.656c22.201 0 40.198 17.995 40.198 40.198v179.354h-877.052v-179.354zM1006.213 245.722v-213.809c0-41.23-33.422-74.652-74.652-74.652h-796.656c-41.23 0-74.652 33.422-74.652 74.652v213.809h945.961zM94.568 465.185v-219.37h877.325v219.37h-877.325zM1006.078 499.816v-288.644h-945.69v288.644h945.69zM60.795 499.85l101.025 149.476c10.524 29.869 38.444 49.805 69.746 49.805h603.335c31.296 0 59.218-19.933 69.746-49.805l101.546-149.476-39.311 0.011-94.423 137.815c-5.667 16.088-20.701 26.819-37.554 26.819h-603.335c-16.848 0-31.888-10.73-37.554-26.819l-93.485-137.826h-39.729zM236.992 349.726c0-15.939-12.747-28.864-28.487-28.864s-28.487 12.925-28.487 28.864c0 15.939 12.747 28.864 28.487 28.864s28.487-12.925 28.487-28.864zM618.913 367.046h261.6c9.561 0 17.322-7.756 17.322-17.322v0c0-9.561-7.756-17.322-17.322-17.322h-261.6c-9.561 0-17.322 7.756-17.322 17.322v0c0 9.561 7.756 17.322 17.322 17.322zM236.992 107.265c0-15.939-12.747-28.864-28.487-28.864s-28.487 12.925-28.487 28.864c0 15.939 12.747 28.864 28.487 28.864s28.487-12.925 28.487-28.864zM618.913 124.583h261.6c9.561 0 17.322-7.756 17.322-17.322v0c0-9.561-7.756-17.322-17.322-17.322h-261.6c-9.561 0-17.322 7.756-17.322 17.322v0c0 9.561 7.756 17.322 17.322 17.322z" />
<glyph unicode="&#xe93e;" glyph-name="ide-cjwj" d="M330.507 155.065h378.105c15.428 0 27.932-12.504 27.932-27.932v0c0-15.428-12.504-27.932-27.932-27.932h-378.105c-15.428 0-27.932 12.504-27.932 27.932v0c0 15.428 12.504 27.932 27.932 27.932zM547.492 316.184v-378.105c0-15.428-12.504-27.932-27.932-27.932v0c-15.428 0-27.932 12.504-27.932 27.932v378.105c0 15.428 12.504 27.932 27.932 27.932v0c15.428 0 27.932-12.504 27.932-27.932zM922.881 480.913v-33.636h-216.271c-27.863 0-50.453 22.589-50.453 50.453v202.346h33.636v-202.346c0-9.288 7.525-16.813 16.813-16.813h216.271zM923.448 471.826l-230.726 226.792h-577.051v-971.848h807.777v745.056zM115.671 732.254h590.813l250.599-246.326v-759.157c0-18.576-15.065-33.636-33.636-33.636h-807.777c-18.576 0-33.636 15.065-33.636 33.636v971.848c0 18.576 15.065 33.636 33.636 33.636z" />
<glyph unicode="&#xe93f;" glyph-name="ide-logo" d="M55.089 315.564l323.297 323.297c64.929-64.929 64.929-170.197 0-235.125l-323.297-323.297c-64.928 64.928-64.929 170.197 0 235.125zM187.347 183.305l176.345-176.345c64.928-64.928 64.928-170.197 0-235.125l-293.907 293.907 117.562 117.562zM984.028 89.046l-323.297-323.297c-64.928 64.928-64.928 170.197 0 235.125l323.297 323.297c64.928-64.928 64.928-170.197 0-235.125zM851.772 221.304l-176.345 176.345c-64.928 64.928-64.928 170.197 0 235.125l293.907-293.907-117.562-117.562zM436.429 191.913c0-22.952-18.608-41.563-41.563-41.563s-41.563 18.608-41.563 41.563c0 22.952 18.608 41.563 41.563 41.563s41.563-18.608 41.563-41.563zM561.124 191.913c0-22.952-18.608-41.563-41.563-41.563s-41.563 18.608-41.563 41.563c0 22.952 18.608 41.563 41.563 41.563s41.563-18.608 41.563-41.563zM685.818 191.913c0-22.952-18.608-41.563-41.563-41.563s-41.563 18.608-41.563 41.563c0 22.952 18.608 41.563 41.563 41.563s41.563-18.608 41.563-41.563z" />
<glyph unicode="&#xe940;" glyph-name="ide-search" d="M389.669 50.333c161.406 0 292.252 130.846 292.252 292.252s-130.846 292.252-292.252 292.252c-161.406 0-292.252-130.846-292.252-292.252s130.846-292.252 292.252-292.252zM389.669-47.086c-215.209 0-389.669 174.461-389.669 389.669s174.461 389.669 389.669 389.669c215.209 0 389.669-174.461 389.669-389.669s-174.461-389.669-389.669-389.669zM697.501 103.637l242.906-242.906c19.019-19.019 19.019-49.862 0-68.884s-49.862-19.019-68.884 0l-242.906 242.906c25.73 19.996 48.884 43.158 68.884 68.884z" />
<glyph unicode="&#xe941;" glyph-name="ide-close" d="M229.277 502.977c19.019 19.019 49.862 19.019 68.884 0l482.191-482.191c19.019-19.019 19.019-49.862 0-68.884s-49.862-19.019-68.884 0l-482.191 482.191c-19.019 19.019-19.019 49.862 0 68.884zM780.352 502.977c-19.019 19.019-49.862 19.019-68.884 0l-482.191-482.191c-19.019-19.019-19.019-49.862 0-68.884s49.862-19.019 68.884 0l482.191 482.191c19.019 19.019 19.019 49.862 0 68.884z" />
<glyph unicode="&#xe942;" glyph-name="ide-left-arrow" d="M701.623 249.107l0.017-137.748-68.882 68.882 68.865 68.865zM701.64 111.359l-0.017 137.748-68.865-68.865 68.882-68.882zM322.756-198.641v0c19.019-19.019 49.861-19.019 68.882 0l378.865 378.865-378.874 378.874c-19.014 19.014-49.847 19.014-68.865 0v0c-19.014-19.014-19.014-49.847 0-68.865l309.992-309.992-310-310c-19.019-19.019-19.019-49.861 0-68.882z" />
<glyph unicode="&#xe943;" glyph-name="ide-left-cjzdyhs" d="M493.581 407.531v0c21.523 0 38.97-17.447 38.97-38.97v-376.68c0-21.523-17.447-38.97-38.97-38.97v0c-21.523 0-38.97 17.447-38.97 38.97v376.68c0 21.523 17.447 38.97 38.97 38.97zM266.276 180.224v0c0-21.523 17.447-38.97 38.97-38.97h376.68c21.523 0 38.97 17.447 38.97 38.97v0c0 21.523-17.447 38.97-38.97 38.97h-376.68c-21.523 0-38.97-17.447-38.97-38.97zM870.261-127.175c0 21.523 17.447 38.97 38.97 38.97s38.97-17.447 38.97-38.97v-49.797c0-57.389-46.521-103.91-103.91-103.91h-714.395c-57.389 0-103.91 46.521-103.91 103.91v779.338c0 57.389 46.521 103.91 103.91 103.91h714.395c57.389 0 103.91-46.521 103.91-103.91v-567.72c0-21.523-17.447-38.97-38.97-38.97s-38.97 17.447-38.97 38.97v567.72c0 14.348-11.627 25.975-25.975 25.975h-714.395c-14.348 0-25.975-11.627-25.975-25.975v-779.338c0-14.348 11.627-25.975 25.975-25.975h714.395c14.348 0 25.975 11.627 25.975 25.975v49.797z" />
<glyph unicode="&#xe944;" glyph-name="ide-left-sc" d="M389.669 342.585h259.778v-389.669h-259.778v389.669zM519.556 736.87l329.339-394.285h-658.68zM847.883 108.783v77.934h61.345c57.389 0 103.91-46.521 103.91-103.91v-259.778c0-57.389-46.521-103.91-103.91-103.91h-779.338c-57.389 0-103.91 46.521-103.91 103.91v259.778c0 57.389 46.521 103.91 103.91 103.91h66.467v-77.934h-66.467c-14.348 0-25.975-11.627-25.975-25.975v-259.778c0-14.348 11.627-25.975 25.975-25.975h779.338c14.348 0 25.975 11.627 25.975 25.975v259.778c0 14.348-11.627 25.975-25.975 25.975h-61.345z" />
<glyph unicode="&#xe945;" glyph-name="ide-left-yjSQL" d="M0-176.974h1039.12v-77.934h-1039.12v77.934zM0-47.086h1039.12v-77.934h-1039.12v77.934zM0 82.807h1039.12v-77.934h-1039.12v77.934zM0 361.76l73.458 8.435c4.417-29.125 13.391-50.523 26.907-64.183s31.758-20.492 54.71-20.492c24.318 0 42.636 6.078 54.965 18.235s18.493 26.368 18.493 42.637c0 10.444-2.598 19.339-7.785 26.67s-14.244 13.706-27.16 19.137c-8.849 3.617-28.99 10.048-60.45 19.29-40.467 11.852-68.866 26.419-85.19 43.691-22.952 24.31-34.431 53.937-34.431 88.894 0 22.502 5.395 43.54 16.201 63.128s26.358 34.501 46.674 44.747c20.324 10.246 44.848 15.369 73.585 15.369 46.932 0 82.256-12.157 105.976-36.459s36.175-56.75 37.363-97.33l-75.499-3.92c-3.229 22.7-10.162 39.025-20.785 48.966s-26.572 14.914-47.823 14.914c-21.931 0-39.11-5.321-51.523-15.97-7.996-6.836-11.993-15.97-11.993-27.423 0-10.444 3.746-19.389 11.224-26.818 9.519-9.439 32.651-19.29 69.376-29.534s63.893-20.839 81.493-31.793c17.598-10.954 31.371-25.912 41.319-44.899s14.919-42.435 14.919-70.361c0-25.314-5.955-49.016-17.85-71.115s-28.739-38.519-50.502-49.27c-21.764-10.741-48.886-16.127-81.364-16.127-47.274 0-83.576 12.908-108.91 38.722s-40.467 63.43-45.4 112.849zM668.514 274.073c18.535-15.666 38.684-28.12 60.45-37.361l-27.802-62.978c-11.392 4.019-22.533 9.538-33.411 16.572-2.376 1.401-19.131 14.463-50.248 39.173-24.49-12.652-51.606-18.98-81.364-18.98-57.475 0-102.493 19.983-135.055 59.965s-48.844 96.126-48.844 168.444c0 72.119 16.326 128.217 48.971 168.293s76.943 60.115 132.887 60.115c55.435 0 99.389-20.036 131.867-60.115s48.715-96.175 48.715-168.293c0-38.169-4.5-71.716-13.517-100.644-6.808-22.095-17.682-43.489-32.651-64.183zM607.811 324.393c9.686 13.459 16.959 29.734 21.805 48.814s7.268 40.984 7.268 65.691c0 51.025-9.519 89.144-28.571 114.355s-43.957 37.819-74.733 37.819c-30.78 0-55.73-12.652-74.86-37.97s-28.697-63.38-28.697-114.204c0-51.627 9.561-90.249 28.697-115.862s43.317-38.417 72.565-38.417c10.887 0 21.171 2.109 30.863 6.326-15.306 11.852-30.863 21.091-46.674 27.724l21.171 50.924c24.825-10.048 48.545-25.107 71.162-45.202zM775.895 218.025v438.136h75.499v-363.706h187.725v-74.429h-263.224z" />
<glyph unicode="&#xe946;" glyph-name="ide-left-hs" d="M129.889 667.31v-909.228h779.338v687.691l-216.863 221.537h-562.476zM129.889 732.254h562.476c17.465 0 34.191-7.037 46.41-19.515l216.863-221.537c11.882-12.141 18.535-28.448 18.535-45.43v-687.691c0-35.871-29.074-64.945-64.945-64.945h-779.338c-35.871 0-64.945 29.074-64.945 64.945v909.228c0 35.871 29.074 64.945 64.945 64.945zM649.449 732.254l324.724-324.724h-324.724zM487.087 212.696h324.724c17.929 0 32.472-14.537 32.472-32.472s-14.537-32.472-32.472-32.472h-324.724c-17.929 0-32.472 14.537-32.472 32.472s14.537 32.472 32.472 32.472zM487.087 82.807h324.724c17.929 0 32.472-14.537 32.472-32.472s-14.537-32.472-32.472-32.472h-324.724c-17.929 0-32.472 14.537-32.472 32.472s14.537 32.472 32.472 32.472zM487.087-47.086h324.724c17.929 0 32.472-14.537 32.472-32.472s-14.537-32.472-32.472-32.472h-324.724c-17.929 0-32.472 14.537-32.472 32.472s14.537 32.472 32.472 32.472zM422.141 180.224c0-35.871-29.074-64.945-64.945-64.945s-64.945 29.074-64.945 64.945c0 35.871 29.074 64.945 64.945 64.945s64.945-29.074 64.945-64.945zM422.141 50.333c0-35.871-29.074-64.945-64.945-64.945s-64.945 29.074-64.945 64.945c0 35.871 29.074 64.945 64.945 64.945s64.945-29.074 64.945-64.945zM422.141-79.557c0-35.871-29.074-64.945-64.945-64.945s-64.945 29.074-64.945 64.945c0 35.871 29.074 64.945 64.945 64.945s64.945-29.074 64.945-64.945z" />
<glyph unicode="&#xe947;" glyph-name="ide-left-drsj" d="M65.738 514.28c0 85.343 202.936 153.029 457.365 153.029s454.337-67.686 454.337-153.029c0-85.343-202.936-153.029-454.337-153.029s-457.365 67.686-457.365 153.029v0zM825.994 455.42c36.343 11.765 63.608 26.491 81.781 38.256 12.119 8.835 15.149 14.71 15.149 17.655s-3.030 8.835-15.149 17.655c-18.179 14.71-45.433 26.491-81.781 38.256-78.752 26.491-187.791 41.201-302.891 41.201-118.127 0-224.139-14.71-302.891-41.201-39.373-8.835-66.637-20.6-81.781-35.311-12.119-8.835-18.179-14.71-18.179-17.655s3.030-8.835 15.149-17.655c18.179-14.71 45.433-29.43 81.781-41.201 78.752-26.491 187.791-41.201 302.891-41.201 118.127 0 227.168 14.71 305.92 41.201v0zM610.732-250.597c9.523-18.016 21.407-34.6 35.219-49.341-36.484-4.464-75.418-6.851-116.796-6.851-248.37 0-430.106 76.516-463.423 182.458v635.663c0 14.71 12.119 23.546 27.259 23.546s27.259-11.765 27.259-26.491v-618.004c24.231-76.516 181.734-144.201 408.903-144.201 28.63 0 55.803 1.094 81.573 3.21zM920.423 55.228l2.49 441.395c0 14.71 12.119 26.491 27.259 26.491s27.259-11.765 27.259-26.491l-2.734-482.592c-15.859 16.302-34.153 30.222-54.288 41.197zM951.417 34.894c-9.601 7.482-19.826 14.221-30.583 20.105 5.895 3.872 11.63 7.862 17.229 11.969 6.060 5.89 18.179 5.89 24.231-2.945 6.060-5.89 6.060-17.655-3.030-23.545-2.591-1.888-5.202-3.752-7.852-5.576zM596.608-71.123c-62.207-3.508-126.778-1.539-191.633 5.653-122.369 13.213-227.301 44.572-284.441 84.002 0 11.14-0.068 14.112-0.068 43.136 32.992-36.916 148.437-77.805 290.566-94.764 67.914-7.884 135.49-9.492 200.001-4.746-5.652-10.618-10.489-21.745-14.426-33.285zM921.592 264.44c-124.95-82.448-316.368-111.119-510.56-88.591-142.34 16.983-257.915 59.972-290.713 97.63 0-14.335-0.046-39.622-0.046-45.042 57.080-40.291 162.144-71.732 284.701-84.962 192.608-21.391 383.505 3.681 516.619 81.191 0 13.268 0 20.86 0 39.772zM810.849 299.449c0-14.625 12.207-26.491 27.259-26.491s27.259 11.858 27.259 26.491c0 14.625-12.207 26.491-27.259 26.491s-27.259-11.858-27.259-26.491v0zM681.921-112.029h259.778c17.929 0 32.472-14.537 32.472-32.472s-14.537-32.472-32.472-32.472h-259.778c-17.929 0-32.472 14.537-32.472 32.472s14.537 32.472 32.472 32.472zM811.811 17.862c17.929 0 32.472-14.537 32.472-32.472v-259.778c0-17.929-14.537-32.472-32.472-32.472s-32.472 14.537-32.472 32.472v259.778c0 17.929 14.537 32.472 32.472 32.472z" />
<glyph unicode="&#xe948;" glyph-name="ide-left-cjb" d="M753.361 212.696v0c21.523 0 38.97-17.447 38.97-38.97v-376.68c0-21.523-17.447-38.97-38.97-38.97v0c-21.523 0-38.97 17.447-38.97 38.97v376.68c0 21.523 17.447 38.97 38.97 38.97zM526.054-14.61v0c0-21.523 17.447-38.97 38.97-38.97h376.68c21.523 0 38.97 17.447 38.97 38.97v0c0 21.523-17.447 38.97-38.97 38.97h-376.68c-21.523 0-38.97-17.447-38.97-38.97zM97.417 440v-616.976c0-17.929 14.537-32.472 32.472-32.472h453.623v-64.945h-453.623c-53.8 0-97.417 43.614-97.417 97.417v681.921h974.172v-357.991h-64.945v293.045h-844.282zM97.36 666.062h844.787c35.871 0 64.945-29.074 64.945-64.945v-129.889h-974.677v129.889c0 35.871 29.074 64.945 64.945 64.945z" />
<glyph unicode="&#xe949;" glyph-name="ide-rl" d="M64.945 277.639v-519.556h909.228v519.556h-909.228zM0 342.585h1039.12v-584.504c0-35.871-29.074-64.945-64.945-64.945h-909.228c-35.871 0-64.945 29.074-64.945 64.945v584.504zM844.282 602.364h129.889c35.871 0 64.945-29.074 64.945-64.945v-194.835h-1039.12v194.835c0 35.871 29.074 64.945 64.945 64.945h129.889v-64.945c0-71.736 58.154-129.889 129.889-129.889s129.889 58.154 129.889 129.889v64.945h129.889v-64.945c0-71.736 58.154-129.889 129.889-129.889s129.889 58.154 129.889 129.889v64.945zM64.945 147.751h909.228v-64.945h-909.228v64.945zM64.945-47.086h909.228v-64.945h-909.228v64.945zM194.835 277.639h64.945v-519.556h-64.945v519.556zM389.669 277.639h64.945v-519.556h-64.945v519.556zM584.504 277.639h64.945v-519.556h-64.945v519.556zM779.338 277.639h64.945v-519.556h-64.945v519.556zM324.724 732.254c35.871 0 64.945-29.074 64.945-64.945v-129.889c0-35.871-29.074-64.945-64.945-64.945s-64.945 29.074-64.945 64.945v129.889c0 35.871 29.074 64.945 64.945 64.945zM714.395 732.254c35.871 0 64.945-29.074 64.945-64.945v-129.889c0-35.871-29.074-64.945-64.945-64.945s-64.945 29.074-64.945 64.945v129.889c0 35.871 29.074 64.945 64.945 64.945z" />
<glyph unicode="&#xe94a;" glyph-name="ide-more" d="M1033.828-90.977l-238.727-247.403-238.727 247.403zM0 667.31h1039.12v-129.889h-1039.12v129.889zM0 277.639h1039.12v-129.889h-1039.12v129.889zM0-112.029h454.615v-129.889h-454.615v129.889z" />
<glyph unicode="&#xe94b;" glyph-name="ide-xzmu" d="M493.581 472.476v0c21.523 0 38.97-17.447 38.97-38.97v-376.68c0-21.523-17.447-38.97-38.97-38.97v0c-21.523 0-38.97 17.447-38.97 38.97v376.68c0 21.523 17.447 38.97 38.97 38.97zM266.276 245.168v0c0-21.523 17.447-38.97 38.97-38.97h376.68c21.523 0 38.97 17.447 38.97 38.97v0c0 21.523-17.447 38.97-38.97 38.97h-376.68c-21.523 0-38.97-17.447-38.97-38.97zM487.087-163.984c225.969 0 409.153 183.184 409.153 409.153s-183.184 409.153-409.153 409.153c-225.969 0-409.153-183.184-409.153-409.153s183.184-409.153 409.153-409.153zM487.087-241.918c-269.010 0-487.087 218.076-487.087 487.087s218.076 487.087 487.087 487.087c269.010 0 487.087-218.076 487.087-487.087s-218.076-487.087-487.087-487.087z" />
<glyph unicode="&#xe94c;" glyph-name="ide-lock" d="M454.615-29.708v-82.321h129.889v82.321c38.826 22.462 64.945 64.435 64.945 112.513 0 71.736-58.154 129.889-129.889 129.889s-129.889-58.154-129.889-129.889c0-48.078 26.117-90.055 64.945-112.513zM194.835 342.585h649.449c35.871 0 64.945-29.074 64.945-64.945v-454.615c0-35.871-29.074-64.945-64.945-64.945h-649.449c-35.871 0-64.945 29.074-64.945 64.945v454.615c0 35.871 29.074 64.945 64.945 64.945zM681.921 342.585v129.889c0 89.67-72.692 162.362-162.362 162.362s-162.362-72.692-162.362-162.362v-129.889h-97.417v129.889c0 143.472 116.306 259.778 259.778 259.778s259.778-116.306 259.778-259.778v-129.889h-97.417zM681.921 342.585v129.889c0 89.67-72.692 162.362-162.362 162.362s-162.362-72.692-162.362-162.362v-129.889h-97.417v129.889c0 143.472 116.306 259.778 259.778 259.778s259.778-116.306 259.778-259.778v-129.889h-97.417z" />
<glyph unicode="&#xe94d;" glyph-name="ide-delete" d="M129.889 667.31h779.338v-129.889h-779.338v129.889zM389.669 732.254h259.778v-64.945h-259.778v64.945zM194.835 472.476h649.449c35.871 0 64.945-29.074 64.945-64.945v-649.449c0-35.871-29.074-64.945-64.945-64.945h-649.449c-35.871 0-64.945 29.074-64.945 64.945v649.449c0 35.871 29.074 64.945 64.945 64.945zM259.778 342.585v-519.556h129.889v519.556h-129.889zM454.615 342.585v-519.556h129.889v519.556h-129.889zM649.449 342.585v-519.556h129.889v519.556h-129.889z" />
<glyph unicode="&#xe94e;" glyph-name="ide-messages" d="M519.556-280.885c-272.597 0-493.581 220.984-493.581 493.581s220.984 493.581 493.581 493.581c272.597 0 493.581-220.984 493.581-493.581s-220.984-493.581-493.581-493.581zM519.556-202.952c229.556 0 415.648 186.091 415.648 415.648s-186.091 415.648-415.648 415.648c-229.556 0-415.648-186.091-415.648-415.648s186.091-415.648 415.648-415.648zM467.343 509.367h105.211l-19.485-396.682h-66.244l-19.485 396.682zM519.556 70.597c17.151 0 31.953-5.451 43.641-16.368 10.917-10.917 17.151-24.936 17.151-42.087s-6.234-31.953-17.151-42.864c-12.468-10.917-26.502-16.368-43.641-16.368s-31.17 6.234-42.087 17.151c-12.468 10.917-17.919 24.936-17.919 42.087s5.451 31.17 17.919 42.087c10.917 10.917 24.936 16.368 42.087 16.368z" />
<glyph unicode="&#xe94f;" glyph-name="ide-help" d="M519.556-280.885c-272.597 0-493.581 220.984-493.581 493.581s220.984 493.581 493.581 493.581c272.597 0 493.581-220.984 493.581-493.581s-220.984-493.581-493.581-493.581zM519.556-202.952c229.556 0 415.648 186.091 415.648 415.648s-186.091 415.648-415.648 415.648c-229.556 0-415.648-186.091-415.648-415.648s186.091-415.648 415.648-415.648zM528.132 455.329c50.655 0 91.963-13.251 123.136-41.304 31.17-27.276 46.759-64.685 46.759-112.224 0-38.97-10.134-70.92-28.836-95.859-7.017-7.8-29.619-28.836-67.023-61.568-14.034-11.685-24.157-24.936-31.17-38.97-7.8-15.585-11.685-31.953-11.685-50.655v-10.917h-89.624v10.917c0 29.619 4.683 55.334 15.585 76.376 10.134 21.039 40.523 53.773 91.183 98.976l9.351 10.917c14.034 17.151 21.039 35.853 21.039 55.334 0 25.719-7.8 45.982-21.819 60.789-14.802 14.802-35.853 21.819-62.347 21.819-34.287 0-58.451-10.134-73.258-31.953-13.251-17.919-19.485-43.641-19.485-76.376h-88.846c0 57.672 16.368 102.871 50.655 135.605 33.512 32.736 78.713 49.099 136.385 49.099zM514.105 5.651c17.151 0 31.953-5.451 43.641-16.368 10.917-10.917 17.151-24.936 17.151-42.087s-6.234-31.953-17.919-42.864c-11.685-10.917-25.719-16.368-42.864-16.368s-31.17 6.234-42.864 17.151c-11.685 10.917-17.151 24.936-17.151 42.087s5.451 31.17 17.151 42.087c11.685 10.917 25.719 16.368 42.864 16.368z" />
<glyph unicode="&#xe950;" glyph-name="ide-fz" d="M259.778 504.944v64.945h64.945v-64.945h-64.945zM389.669 504.944v64.945h64.945v-64.945h-64.945zM519.556 504.944v64.945h64.945v-64.945h-64.945zM649.449 504.944v64.945h64.945v-64.945h-64.945zM779.338 504.944v64.945h64.945v-64.945h-64.945zM909.228 504.944v64.945c35.157 0 67.075-18.806 84.354-48.667l-56.211-32.531c-5.792 10.002-16.404 16.258-28.14 16.258zM941.701 434.434h64.945v-64.945h-64.945v64.945zM941.701 304.54h64.945v-64.945h-64.945v64.945zM941.701 174.653h64.945v-64.945h-64.945v64.945zM941.701 44.762h64.945v-64.945h-64.945v64.945zM941.701-85.126h64.945v-64.945h-64.945v64.945zM936.151-195.141l53.767-36.422c-15.705-23.187-40.724-38.691-71.96-42.336l-19.060-0.471-1.634 64.925 15.955 0.247c9.326 1.132 17.661 6.298 22.92 14.070zM833.14-209.446v-64.945h-64.945v64.945h64.945zM703.249-209.446v-64.945h-64.945v64.945h64.945zM573.36-209.446v-64.945h-64.945v64.945h64.945zM443.471-209.446v-64.945h-64.945v64.945h64.945zM313.581-209.446v-64.945h-53.8c-5.595 0-11.16 0.469-16.618 1.412l11.032 64.002c1.827-0.31 3.697-0.467 5.585-0.467h53.8zM228.933-187.176l-61.667-20.378c-2.466 7.479-4.033 15.27-4.726 25.534l-0.182 54.122 64.945 0.218 0.092-51.798c0.196-2.657 0.72-5.226 1.525-7.695zM227.307-62.842h-64.945v64.945h64.945v-64.945zM227.307 67.048h-64.945v64.945h64.945v-64.945zM227.307 196.938h-64.945v64.945h64.945v-64.945zM227.307 326.828h-64.945v64.945h64.945v-64.945zM227.307 456.718h-64.945v15.754c0 25.863 10.171 50.208 27.938 68.285l46.318-45.523c-5.953-6.055-9.311-14.105-9.311-22.759v-15.754zM389.669 147.751h389.669v-77.934h-389.669v77.934zM623.471 303.617v-389.669h-77.934v389.669h77.934zM160.61-79.557v-64.945h-30.723c-53.8 0-97.417 43.614-97.417 97.417v649.449c0 53.8 43.614 97.417 97.417 97.417h584.504c53.8 0 97.417-43.614 97.417-97.417v-31.813h-64.945v31.813c0 17.929-14.537 32.472-32.472 32.472h-584.504c-17.929 0-32.472-14.537-32.472-32.472v-649.449c0-17.929 14.537-32.472 32.472-32.472h30.723z" />
<glyph unicode="&#xe951;" glyph-name="ide-sx" d="M896.239 667.31c0-7.174 5.821-12.995 12.995-12.995h-12.995v12.995zM716.899 654.321v77.934h192.329c35.871 0 64.945-29.074 64.945-64.945v-909.228c0-35.871-29.074-64.945-64.945-64.945h-194.28l0.144 77.934h181.145v883.251h-179.34zM909.228-228.93c-7.174 0-12.995-5.821-12.995-12.995v12.995h12.995zM909.228-228.93c-7.174 0-12.995-5.821-12.995-12.995v12.995h12.995zM896.239 654.321h-179.34v77.934h192.329c35.871 0 64.945-29.074 64.945-64.945v-909.228c0-35.871-29.074-64.945-64.945-64.945h-194.28l0.144 77.934h181.145v883.251zM896.239 667.31c0-7.174 5.821-12.995 12.995-12.995h-12.995v12.995zM142.879-241.918c0 7.174-5.821 12.995-12.995 12.995h12.995v-12.995zM142.879-228.93v883.251h183.431l0.079 77.934h-196.5c-35.871 0-64.945-29.074-64.945-64.945v-909.228c0-35.871 29.074-64.945 64.945-64.945h195.437l0.079 77.934h-182.528zM142.879 667.31c0-7.174-5.821-12.995-12.995-12.995h12.995v12.995zM129.889 654.321c7.174 0 12.995 5.821 12.995 12.995v-12.995h-12.995zM142.879 654.321h183.431l0.079 77.934h-196.5c-35.871 0-64.945-29.074-64.945-64.945v-909.228c0-35.871 29.074-64.945 64.945-64.945h195.437l0.079 77.934h-182.528v883.251zM129.889-228.93c7.174 0 12.995-5.821 12.995-12.995v12.995h-12.995zM584.504 342.585v-259.778h-129.889v259.778h-183.691l248.637 248.637 248.637-248.637h-183.691zM584.504-47.086c0-35.871-29.074-64.945-64.945-64.945s-64.945 29.074-64.945 64.945c0 35.871 29.074 64.945 64.945 64.945s64.945-29.074 64.945-64.945zM584.504-241.918c0-35.871-29.074-64.945-64.945-64.945s-64.945 29.074-64.945 64.945c0 35.871 29.074 64.945 64.945 64.945s64.945-29.074 64.945-64.945z" />
<glyph unicode="&#xe952;" glyph-name="ide-sz" d="M964.894 286.917h-82.387c-9.644 47.501-28.946 90.55-54.182 129.149l58.637 58.637c28.946 28.946 28.946 75.707 0 104.654s-75.707 28.946-104.654 0l-58.637-58.637c-39.336 26.721-82.387 46.020-129.889 55.667v81.645c0 40.824-33.398 74.222-74.222 74.222s-74.222-33.398-74.222-74.222v-81.645c-47.501-9.644-90.55-28.946-129.889-54.924l-58.637 58.637c-28.946 28.946-75.707 28.946-104.654 0s-28.946-75.707 0-104.654l58.637-58.637c-25.235-39.336-44.531-82.387-54.182-129.889h-82.387c-40.824 0-74.222-33.398-74.222-74.222s33.398-74.222 74.222-74.222h82.387c9.644-47.501 28.946-90.55 54.182-129.149l-58.637-58.637c-28.946-28.946-28.946-75.707 0-104.654s75.707-28.946 104.654 0l58.637 58.637c39.336-26.721 82.387-46.020 129.889-55.667v-81.645c0-40.824 33.398-74.222 74.222-74.222s74.222 33.398 74.222 74.222v81.645c47.501 9.644 90.55 28.946 129.889 54.924l58.637-58.637c28.946-28.946 75.707-28.946 104.654 0s28.946 75.707 0 104.654l-58.637 58.637c25.235 38.595 44.531 82.387 54.182 129.149h82.387c40.824 0 74.222 33.398 74.222 74.222 0 41.563-33.398 74.964-74.222 74.964zM519.556 64.25c-81.645 0-148.446 66.801-148.446 148.446s66.801 148.446 148.446 148.446c81.645 0 148.446-66.801 148.446-148.446s-66.801-148.446-148.446-148.446z" />
<glyph unicode="&#xe953;" glyph-name="ide-tz" d="M910.69-88.402c-13.143-17.045-37.607-20.214-54.652-7.074s-20.214 37.607-7.074 54.652c55.614 72.143 86.239 160.451 86.239 253.518 0 229.556-186.091 415.648-415.648 415.648s-415.648-186.091-415.648-415.648c0-229.556 186.091-415.648 415.648-415.648 68.383 0 134.307 16.5 193.428 47.644 19.038 10.035 42.605 2.732 52.637-16.316s2.732-42.605-16.316-52.637c-70.254-37.012-148.633-56.63-229.751-56.63-272.597 0-493.581 220.984-493.581 493.581s220.984 493.581 493.581 493.581c272.597 0 493.581-220.984 493.581-493.581 0-110.436-36.414-215.439-102.45-301.098zM389.669 407.531h259.778c35.871 0 64.945-29.074 64.945-64.945v-259.778c0-35.871-29.074-64.945-64.945-64.945h-259.778c-35.871 0-64.945 29.074-64.945 64.945v259.778c0 35.871 29.074 64.945 64.945 64.945z" />
<glyph unicode="&#xe954;" glyph-name="ide-yx" d="M910.69-88.402c-13.143-17.045-37.607-20.214-54.652-7.074s-20.214 37.607-7.074 54.652c55.614 72.143 86.239 160.451 86.239 253.518 0 229.556-186.091 415.648-415.648 415.648s-415.648-186.091-415.648-415.648c0-229.556 186.091-415.648 415.648-415.648 68.383 0 134.307 16.5 193.428 47.644 19.038 10.035 42.605 2.732 52.637-16.316s2.732-42.605-16.316-52.637c-70.254-37.012-148.633-56.63-229.751-56.63-272.597 0-493.581 220.984-493.581 493.581s220.984 493.581 493.581 493.581c272.597 0 493.581-220.984 493.581-493.581 0-110.436-36.414-215.439-102.45-301.098zM417.803 451.419l312.348-238.727-312.348-238.727z" />
<glyph unicode="&#xe955;" glyph-name="ide-gsh" d="M493.581 602.364h506.569c21.523 0 38.97-17.447 38.97-38.97v0c0-21.523-17.447-38.97-38.97-38.97h-506.569c-21.523 0-38.97 17.447-38.97 38.97v0c0 21.523 17.447 38.97 38.97 38.97zM493.581 407.531h506.569c21.523 0 38.97-17.447 38.97-38.97v0c0-21.523-17.447-38.97-38.97-38.97h-506.569c-21.523 0-38.97 17.447-38.97 38.97v0c0 21.523 17.447 38.97 38.97 38.97zM493.581 82.807h506.569c21.523 0 38.97-17.447 38.97-38.97v0c0-21.523-17.447-38.97-38.97-38.97h-506.569c-21.523 0-38.97 17.447-38.97 38.97v0c0 21.523 17.447 38.97 38.97 38.97zM493.581-112.029h506.569c21.523 0 38.97-17.447 38.97-38.97v0c0-21.523-17.447-38.97-38.97-38.97h-506.569c-21.523 0-38.97 17.447-38.97 38.97v0c0 21.523 17.447 38.97 38.97 38.97zM64.945 667.31h259.778c35.871 0 64.945-29.074 64.945-64.945v-259.778c0-35.871-29.074-64.945-64.945-64.945h-259.778c-35.871 0-64.945 29.074-64.945 64.945v259.778c0 35.871 29.074 64.945 64.945 64.945zM64.945 147.751h259.778c35.871 0 64.945-29.074 64.945-64.945v-259.778c0-35.871-29.074-64.945-64.945-64.945h-259.778c-35.871 0-64.945 29.074-64.945 64.945v259.778c0 35.871 29.074 64.945 64.945 64.945z" />
<glyph unicode="&#xe956;" glyph-name="ide-edit1" d="M901.772-221.949c22.831 0 41.318-19.004 41.318-42.471 0-23.438-18.486-42.437-41.318-42.437h-860.482c-22.802 0-41.289 19.004-41.289 42.437 0 23.473 18.493 42.471 41.289 42.471h860.482zM39.357-164.652l99.247 272.489 161.75-166.302-260.995-106.185zM333.522-27.141l-163.124 167.667 443.445 452.242 163.118-167.666-443.439-452.243zM807.393 459.943l-163.118 167.666 81.594 83.831c27.032 27.758 70.808 27.758 97.842 0l65.242-67.056c27.032-27.79 27.032-72.854 0-100.643l-81.56-83.797z" />
<glyph unicode="&#xe957;" glyph-name="ide-lcw" d="M78.099-165.237c0 7.098-5.759 12.858-12.858 12.858h12.858v-12.858zM78.099-152.39v873.864h873.864v-565.442h77.105v578.292c0 35.492-28.766 64.258-64.258 64.258h-899.566c-35.492 0-64.258-28.766-64.258-64.258v-899.566c0-35.492 28.766-64.258 64.258-64.258h578.292v77.105l-565.439 0.003zM65.251 721.475c7.098 0 12.858 5.759 12.858 12.858v-12.858h-12.858zM951.964 734.325c0-7.098 5.759-12.858 12.858-12.858h-12.858v12.858zM951.964 734.325c0-7.098 5.759-12.858 12.858-12.858h-12.858v12.858zM951.964 721.475v-565.442h77.105v578.292c0 35.492-28.766 64.258-64.258 64.258h-899.566c-35.492 0-64.258-28.766-64.258-64.258v-899.566c0-35.492 28.766-64.258 64.258-64.258h578.292v77.105h-565.442v873.864l873.867 0.003zM65.251 721.475c7.098 0 12.858 5.759 12.858 12.858v-12.858h-12.858zM78.099-165.237c0 7.098-5.759 12.858-12.858 12.858h12.858v-12.858zM804.177 734.325h64.258v-385.527c0-53.23-43.15-96.382-96.382-96.382h-514.035c-53.23 0-96.382 43.15-96.382 96.382v385.527h64.258v-385.527c0-17.738 14.383-32.124 32.124-32.124h514.035c17.738 0 32.124 14.383 32.124 32.124v385.527zM682.093 670.071c21.295 0 38.558-17.262 38.558-38.558v-179.914c0-21.295-17.262-38.558-38.558-38.558s-38.558 17.262-38.558 38.558v179.914c0 21.295 17.262 38.558 38.558 38.558zM322.267 36.703h462.042v-99.137h-462.042v99.137zM784.539 193.514l233.219-201.968-233.219-208.538v410.506z" />
<glyph unicode="&#xe958;" glyph-name="ide-save" d="M77.934 654.321v-883.251h883.251v883.251h-883.251zM64.945 732.254h909.228c35.871 0 64.945-29.074 64.945-64.945v-909.228c0-35.871-29.074-64.945-64.945-64.945h-909.228c-35.871 0-64.945 29.074-64.945 64.945v909.228c0 35.871 29.074 64.945 64.945 64.945zM811.811 667.31h64.945v-389.669c0-53.8-43.614-97.417-97.417-97.417h-519.556c-53.8 0-97.417 43.614-97.417 97.417v389.669h64.945v-389.669c0-17.929 14.537-32.472 32.472-32.472h519.556c17.929 0 32.472 14.537 32.472 32.472v389.669zM259.778-47.086h519.556c35.871 0 64.945-29.074 64.945-64.945v-129.889c0-35.871-29.074-64.945-64.945-64.945h-519.556c-35.871 0-64.945 29.074-64.945 64.945v129.889c0 35.871 29.074 64.945 64.945 64.945zM681.921 602.364c17.929 0 32.472-14.537 32.472-32.472v-194.835c0-17.929-14.537-32.472-32.472-32.472s-32.472 14.537-32.472 32.472v194.835c0 17.929 14.537 32.472 32.472 32.472z" />
<glyph unicode="&#xe959;" glyph-name="ide-xj" d="M493.581 342.585v0c21.523 0 38.97-17.447 38.97-38.97v-376.68c0-21.523-17.447-38.97-38.97-38.97v0c-21.523 0-38.97 17.447-38.97 38.97v376.68c0 21.523 17.447 38.97 38.97 38.97zM266.276 115.278v0c0-21.523 17.447-38.97 38.97-38.97h376.68c21.523 0 38.97 17.447 38.97 38.97v0c0 21.523-17.447 38.97-38.97 38.97h-376.68c-21.523 0-38.97-17.447-38.97-38.97zM142.879 654.321v-883.251h753.361v669.403l-209.334 213.847h-544.027zM129.889 732.254h562.476c17.465 0 34.191-7.037 46.41-19.515l216.863-221.537c11.882-12.141 18.535-28.448 18.535-45.43v-687.691c0-35.871-29.074-64.945-64.945-64.945h-779.338c-35.871 0-64.945 29.074-64.945 64.945v909.228c0 35.871 29.074 64.945 64.945 64.945zM687.284 654.195l208.962-213.638v-33.025h-246.798v246.664z" />
<glyph unicode="&#xe95a;" glyph-name="ide-wjj" d="M129.889 589.376c-28.697 0-51.955-23.263-51.955-51.955v-714.395c0-28.697 23.263-51.955 51.955-51.955h779.338c28.697 0 51.955 23.263 51.955 51.955v584.504c0 28.697-23.263 51.955-51.955 51.955h-508.008l-47.704 100.259c-8.608 18.103-26.869 29.636-46.916 29.636h-176.71zM129.889 667.31h176.71c50.114 0 95.756-28.829 117.288-74.079l26.559-55.809h458.784c71.736 0 129.889-58.154 129.889-129.889v-584.504c0-71.736-58.154-129.889-129.889-129.889h-779.338c-71.736 0-129.889 58.154-129.889 129.889v714.395c0 71.736 58.154 129.889 129.889 129.889zM79.936 342.585h879.558v-77.934h-879.558zM844.282 17.862c0-35.871-29.074-64.945-64.945-64.945s-64.945 29.074-64.945 64.945c0 35.871 29.074 64.945 64.945 64.945s64.945-29.074 64.945-64.945zM584.504 17.862c0-35.871-29.074-64.945-64.945-64.945s-64.945 29.074-64.945 64.945c0 35.871 29.074 64.945 64.945 64.945s64.945-29.074 64.945-64.945zM324.724 17.862c0-35.871-29.074-64.945-64.945-64.945s-64.945 29.074-64.945 64.945c0 35.871 29.074 64.945 64.945 64.945s64.945-29.074 64.945-64.945z" />
<glyph unicode="&#xe95b;" glyph-name="ide-wjjdk" d="M72.386-306.301c-40.45 2.848-72.386 36.562-72.386 77.739v765.983c0 71.736 58.154 129.889 129.889 129.889h176.71c50.114 0 95.756-28.829 117.288-74.079l26.559-55.809h328.894c71.736 0 129.889-58.154 129.889-129.889v-129.55h-77.934v129.55c0 28.697-23.263 51.955-51.955 51.955h-378.118l-47.704 100.259c-8.608 18.103-26.869 29.636-46.916 29.636h-176.71c-28.697 0-51.955-23.263-51.955-51.955v-493.581l-60.371-271.668c-1.028-4.621-1.543-9.349-1.543-14.094 0-32.962 24.558-60.187 56.371-64.384zM373.433 82.807h357.195c26.9 0 48.707-21.805 48.707-48.707v0c0-26.9-21.805-48.707-48.707-48.707h-357.195c-26.9 0-48.707 21.805-48.707 48.707v0c0 26.9 21.805 48.707 48.707 48.707zM941.964 199.707h-749.558l-95.253-428.637h707.882c24.355 0 45.435 16.908 50.717 40.684l86.211 387.951zM129.889 277.639h909.228l-107.287-482.791c-13.209-59.43-65.918-101.712-126.797-101.712h-724.073c-35.871 0-64.945 29.074-64.945 64.945 0 4.745 0.511 9.46 1.543 14.094l112.327 505.47z" />
<glyph unicode="&#xe95c;" glyph-name="ide-shuax" d="M167.912 348.095c55.113 143.291 193.784 241.278 351.646 241.278 129.042 0 246.483-65.405 315.252-170.395l85.224 9.061c-76.762 142.455-227.313 239.271-400.477 239.271-207.234 0-382.081-138.66-436.827-328.265l85.179 9.057zM167.912 348.095c55.113 143.291 193.784 241.278 351.646 241.278 129.042 0 246.483-65.405 315.252-170.395l85.224 9.061c-76.762 142.455-227.313 239.271-400.477 239.271-207.234 0-382.081-138.66-436.827-328.265l85.179 9.057zM1002.452 532.3l-42.431-260.139-231.116 126.719zM871.206 77.294c-55.113-143.291-193.784-241.278-351.646-241.278-129.043 0-246.483 65.405-315.252 170.395l-85.224-9.061c76.762-142.455 227.313-239.271 400.477-239.271 207.234 0 382.081 138.66 436.827 328.265l-85.179-9.057zM871.206 77.294c-55.113-143.291-193.784-241.278-351.646-241.278-129.043 0-246.483 65.405-315.252 170.395l-85.224-9.061c76.762-142.455 227.313-239.271 400.477-239.271 207.234 0 382.081 138.66 436.827 328.265l-85.179-9.057zM36.666-106.909l42.431 260.139 231.116-126.719z" />
<glyph unicode="&#xe95d;" glyph-name="ide-xjml" d="M1039.12 81.681v325.85c0 71.736-58.154 129.889-129.889 129.889h-458.784l-26.559 55.809c-21.534 45.253-67.175 74.079-117.288 74.079h-176.71c-71.736 0-129.889-58.154-129.889-129.889v-714.395c0-71.736 58.154-129.889 129.889-129.889h392.657v77.934h-392.657c-28.697 0-51.955 23.263-51.955 51.955v714.395c0 28.697 23.263 51.955 51.955 51.955h176.71c20.043 0 38.3-11.529 46.916-29.636l47.704-100.259h508.008c28.697 0 51.955-23.263 51.955-51.955v-325.85h77.934zM1039.12 407.531c0 71.736-58.154 129.889-129.889 129.889h-458.784l-26.559 55.809c-21.534 45.253-67.175 74.079-117.288 74.079h-176.71c-71.736 0-129.889-58.154-129.889-129.889v-714.395c0-71.736 58.154-129.889 129.889-129.889h392.657v77.934h-392.657c-28.697 0-51.955 23.263-51.955 51.955v714.395c0 28.697 23.263 51.955 51.955 51.955h176.71c20.043 0 38.3-11.529 46.916-29.636l47.704-100.259h508.008c28.697 0 51.955-23.263 51.955-51.955v-325.85h77.934v325.85zM79.936 342.585h879.558v-77.934h-879.558zM763.102 147.751c26.9 0 48.707-21.805 48.707-48.707v-357.195c0-26.9-21.805-48.707-48.707-48.707s-48.707 21.805-48.707 48.707v357.195c0 26.9 21.805 48.707 48.707 48.707zM535.796-79.557c0-26.9 21.805-48.707 48.707-48.707h357.195c26.9 0 48.707 21.805 48.707 48.707s-21.805 48.707-48.707 48.707h-357.195c-26.9 0-48.707-21.805-48.707-48.707z" />
<glyph unicode="&#xe95e;" glyph-name="ide-left-python" d="M183.375 640.568c-16.874 0-30.565-13.679-30.565-30.565v-305.037h-61.124v-428.962h61.124v-60.62c0-16.874 13.679-30.565 30.565-30.565h611.246c16.874 0 30.565 13.679 30.565 30.565v60.62l61.124-0.121v428.667h-61.124v158.204c0 7.959-3.101 15.594-8.64 21.305l-143.111 147.253c-5.761 5.925-13.656 9.262-21.913 9.262h-468.134zM183.375 701.691h468.134c24.77 0 48.486-10.027 65.751-27.787l143.111-147.253c16.63-17.118 25.934-40.040 25.934-63.901v-647.367c0-50.636-41.052-91.686-91.686-91.686h-611.246c-50.636 0-91.686 41.052-91.686 91.686v794.618c0 50.636 41.052 91.686 91.686 91.686zM641.808 457.195h182.651v-61.124h-243.777v244.059h61.124zM0 304.382h977.993v-427.872h-977.993v427.872zM378.133 243.258c-19.55 0-36.409-5.443-50.588-16.343-7.763-6.119-15.078-14.475-21.933-25.066v36.040h-61.11v-340.021h63.124v127.144c6.717-10.297 13.577-18.135 20.594-23.507 12.83-9.694 28.949-14.548 48.352-14.548 30.443 0 55.328 11.268 74.652 33.804s28.986 55.29 28.986 98.268c0 40.74-9.893 71.63-29.663 92.671s-43.912 31.564-72.414 31.564zM536.17-52.889v-51.036c6.87-0.441 12.018-0.714 15.446-0.787s7.988-0.11 13.651-0.11c28.201 0 47.008 5.553 56.409 16.674s22.16 39.808 38.276 86.068l83.719 239.962h-67.825l-50.367-179.972-53.276 179.972h-70.958l89.537-254.736c0.603-1.795-0.714-6.717-3.92-14.769s-6.674-13.357-10.407-15.889c-3.884-2.692-8.649-4.398-14.328-5.149s-11.636-0.971-17.902-0.677l-8.061 0.441zM414.398 115.891c0 18.8-4.288 35.44-12.87 49.917s-22.499 21.712-41.747 21.712c-23.128 0-39.026-10.974-47.677-32.906-4.472-11.636-6.717-26.416-6.717-44.321 0-28.353 7.531-48.278 22.609-59.767 8.959-6.717 19.55-10.076 31.789-10.076 17.755 0 31.299 6.87 40.627 20.594s13.995 32.009 13.995 54.841z" />
<glyph unicode="&#xe95f;" glyph-name="ide-left-shell" d="M183.375 640.568c-16.874 0-30.565-13.679-30.565-30.565v-305.037h-61.124v-428.962h61.124v-60.62c0-16.874 13.679-30.565 30.565-30.565h611.246c16.874 0 30.565 13.679 30.565 30.565v60.62l61.124-0.121v428.667h-61.124v158.204c0 7.959-3.101 15.594-8.64 21.305l-143.111 147.253c-5.761 5.925-13.656 9.262-21.913 9.262h-468.134zM183.375 701.691h468.134c24.77 0 48.486-10.027 65.751-27.787l143.111-147.253c16.63-17.118 25.934-40.040 25.934-63.901v-647.367c0-50.636-41.052-91.686-91.686-91.686h-611.246c-50.636 0-91.686 41.052-91.686 91.686v794.618c0 50.636 41.052 91.686 91.686 91.686zM641.808 457.195h182.651v-61.124h-243.777v244.059h61.124zM0 304.382v-427.872h977.993v427.872h-977.993zM64.691-8.792c1.339-11.342 4.251-19.403 8.726-24.174 7.914-8.502 22.536-12.754 43.874-12.754 12.533 0 22.499 1.868 29.884 5.59s11.084 9.326 11.084 16.784c0 7.164-2.986 12.606-8.959 16.343s-28.125 10.15-66.482 19.256c-27.611 6.87-47.083 15.446-58.424 25.743-11.342 10.15-17.012 24.772-17.012 43.874 0 22.536 8.848 41.898 26.53 58.088s42.565 24.289 74.652 24.289c30.443 0 55.252-6.083 74.429-18.248s30.178-33.164 33.017-63.012h-63.797c-0.897 8.208-3.207 14.695-6.943 19.476-7.017 8.649-18.947 12.989-35.819 12.989-13.876 0-23.764-2.162-29.663-6.487s-8.848-9.4-8.848-15.225c0-7.311 3.133-12.606 9.4-15.889 6.267-3.427 28.43-9.326 66.482-17.681 25.372-5.972 44.395-15 57.080-27.081 12.533-12.239 18.799-27.537 18.799-45.889 0-24.174-8.995-43.912-26.971-59.207s-45.775-22.94-83.381-22.94c-38.349 0-66.668 8.098-84.949 24.289s-27.423 36.826-27.423 61.893h64.691zM392.263 163.569c15.078 0 28.766-2.619 41.078-7.841s22.426-13.21 30.33-23.948c6.717-9.106 10.819-18.468 12.312-28.089s2.236-25.333 2.236-47.121v-143.26h-65.138v148.41c0 13.136-2.236 23.727-6.717 31.789-5.825 11.342-16.858 17.012-33.127 17.012-16.858 0-29.663-5.626-38.386-16.894s-13.099-27.346-13.099-48.241v-132.068h-63.572v328.828h63.572v-116.623c9.253 14.181 19.954 24.058 32.119 29.663s24.956 8.392 38.386 8.392zM621.79 111.189c-14.769 0-26.226-4.622-34.357-13.875s-13.246-21.786-15.335-37.606h99.165c-1.044 16.858-6.156 29.663-15.335 38.386s-20.557 13.099-34.135 13.099zM621.79 163.793c20.3 0 38.575-3.81 54.841-11.415s29.7-19.623 40.291-36.040c9.547-14.475 15.74-31.26 18.579-50.367 1.648-11.194 2.309-27.309 2.015-48.352h-166.988c0.897-24.478 8.576-41.633 23.052-51.485 8.809-6.119 19.403-9.179 31.789-9.179 13.136 0 23.801 3.736 32.009 11.194 4.472 4.031 8.429 9.62 11.864 16.784h65.138c-1.648-14.475-9.179-29.17-22.609-44.1-20.888-23.727-50.142-35.592-87.749-35.592-31.038 0-58.423 10.003-82.151 29.994s-35.592 52.529-35.592 97.595c0 42.233 10.701 74.615 32.119 97.15s49.209 33.804 83.381 33.804zM833.41-86.689h-63.797v329.947h63.797v-329.947zM948.554-86.689h-63.797v329.947h63.797v-329.947z" />
<glyph unicode="&#xe960;" glyph-name="ide-left-sql" d="M183.375 640.568c-16.874 0-30.565-13.679-30.565-30.565v-305.037h-61.124v-428.962h61.124v-60.62c0-16.874 13.679-30.565 30.565-30.565h611.246c16.874 0 30.565 13.679 30.565 30.565v60.62l61.124-0.121v428.667h-61.124v158.204c0 7.959-3.101 15.594-8.64 21.305l-143.111 147.253c-5.761 5.925-13.656 9.262-21.913 9.262h-468.134zM183.375 701.691h468.134c24.77 0 48.486-10.027 65.751-27.787l143.111-147.253c16.63-17.118 25.934-40.040 25.934-63.901v-647.367c0-50.636-41.052-91.686-91.686-91.686h-611.246c-50.636 0-91.686 41.052-91.686 91.686v794.618c0 50.636 41.052 91.686 91.686 91.686zM641.808 457.195h182.651v-61.124h-243.777v244.059h61.124zM0 304.382v-427.872h977.993v427.872h-977.993zM126.935 5.088c2.089-15.078 6.193-26.34 12.312-33.804 11.194-13.577 30.367-20.374 57.529-20.374 16.269 0 29.475 1.795 39.62 5.369 19.256 6.87 28.876 19.623 28.876 38.276 0 10.899-4.781 19.329-14.328 25.295-9.547 5.825-24.551 10.974-44.994 15.446l-34.922 7.841c-34.32 7.763-58.050 16.196-71.183 25.295-22.238 15.225-33.351 39.026-33.351 71.407 0 29.551 10.738 54.096 32.23 73.645s53.051 29.322 94.685 29.322c34.774 0 64.43-9.216 88.979-27.648s37.417-45.182 38.612-80.248h-66.258c-1.191 19.844-9.854 33.951-25.963 42.306-10.738 5.516-24.097 8.282-40.070 8.282-17.755 0-31.936-3.574-42.528-10.738s-15.889-17.167-15.889-29.994c0-11.784 5.222-20.594 15.666-26.416 6.717-3.884 21.038-8.429 42.98-13.651l56.855-13.651c24.919-5.972 43.723-13.955 56.409-23.948 19.697-15.519 29.551-37.981 29.551-67.377 0-30.141-11.525-55.178-34.585-75.099s-55.626-29.884-97.707-29.884c-42.98 0-76.779 9.813-101.402 29.436s-36.937 46.595-36.937 80.92h65.811zM528.066-47.515c7.914 0 15.519 0.971 22.83 2.913 4.031 1.044 9.179 2.913 15.446 5.59l-33.351 31.789 35.592 37.158 33.351-31.789c5.222 10.738 8.885 20.147 10.974 28.201 3.28 12.092 4.928 26.187 4.928 42.306 0 37.011-7.568 65.624-22.72 85.846s-37.268 30.33-66.369 30.33c-27.309 0-49.097-9.694-65.363-29.096s-24.404-48.425-24.404-87.076c0-45.219 11.635-77.599 34.922-97.15 15.078-12.68 33.127-19.025 54.17-19.025zM686.771 73.584c0-29.399-3.574-54.020-10.738-73.869-5.825-18.948-14.401-34.698-25.743-47.233l38.055-35.592-36.040-37.606-39.846 37.606c-12.092-7.311-22.536-12.459-31.336-15.446-14.769-4.928-32.457-7.384-53.051-7.384-42.98 0-78.496 12.83-106.551 38.499-34.025 30.891-51.036 76.256-51.036 136.098 0 60.289 17.461 105.877 52.382 136.769 28.506 25.219 63.944 37.832 106.327 37.832 42.679 0 78.496-13.357 107.447-40.070 33.426-30.891 50.142-74.092 50.142-129.606zM739.375 233.185h68.944v-270.628h163.406v-59.319h-232.351v329.947z" />
<glyph unicode="&#xe961;" glyph-name="ide-left-zip" d="M183.375 640.568c-16.874 0-30.565-13.679-30.565-30.565v-305.037h-61.124v-428.962h61.124v-60.62c0-16.874 13.679-30.565 30.565-30.565h611.246c16.874 0 30.565 13.679 30.565 30.565v60.62l61.124-0.121v428.667h-61.124v158.204c0 7.959-3.101 15.594-8.64 21.305l-143.111 147.253c-5.761 5.925-13.656 9.262-21.913 9.262h-468.134zM183.375 701.691h468.134c24.77 0 48.486-10.027 65.751-27.787l143.111-147.253c16.63-17.118 25.934-40.040 25.934-63.901v-647.367c0-50.636-41.052-91.686-91.686-91.686h-611.246c-50.636 0-91.686 41.052-91.686 91.686v794.618c0 50.636 41.052 91.686 91.686 91.686zM641.808 457.195h182.651v-61.124h-243.777v244.059h61.124zM0 304.382v-427.872h977.993v427.872h-977.993zM183.375-28.49l170.346 213.325h-166.092v58.424h252.049v-55.29l-172.585-216.459h173.032v-58.2h-256.751v58.2zM549.808-86.689h-68.496v329.947h68.496v-329.947zM799.843 138.275c0 17.167-4.508 29.399-13.541 36.711s-21.675 10.974-37.945 10.974h-64.243v-97.15h64.243c16.269 0 28.913 3.957 37.945 11.864s13.541 20.447 13.541 37.606zM868.115 138.723c0-38.953-9.854-66.482-29.551-82.6s-47.827-24.174-84.389-24.174h-70.063v-118.639h-68.496v329.947h143.709c33.127 0 59.543-8.502 79.24-25.522s29.551-43.35 29.551-79.017z" />
<glyph unicode="&#xe962;" glyph-name="ide-left-jar" d="M183.375 640.568c-16.874 0-30.565-13.679-30.565-30.565v-305.037h-61.124v-428.962h61.124v-60.62c0-16.874 13.679-30.565 30.565-30.565h611.246c16.874 0 30.565 13.679 30.565 30.565v60.62l61.124-0.121v428.667h-61.124v158.204c0 7.959-3.101 15.594-8.64 21.305l-143.111 147.253c-5.761 5.925-13.656 9.262-21.913 9.262h-468.134zM183.375 701.691h468.134c24.77 0 48.486-10.027 65.751-27.787l143.111-147.253c16.63-17.118 25.934-40.040 25.934-63.901v-647.367c0-50.636-41.052-91.686-91.686-91.686h-611.246c-50.636 0-91.686 41.052-91.686 91.686v794.618c0 50.636 41.052 91.686 91.686 91.686zM641.808 457.195h182.651v-61.124h-243.777v244.059h61.124zM0 304.382v-427.872h977.993v427.872h-977.993zM338.96 245.511h-63.797v58.87h63.797v-58.87zM244.499-74.364c3.574-0.294 6.119-0.478 7.605-0.566s2.839-0.11 4.031-0.11c6.267 0 11.011 1.522 14.217 4.582s4.818 8.995 4.818 17.792v267.942h63.797v-269.060c0-24.625-4.854-42.829-14.548-54.619s-28.729-17.681-57.080-17.681c-1.942 0-4.818 0.074-8.613 0.221s-8.539 0.294-14.217 0.441v51.036zM534.156 91.059c-4.031-2.53-8.098-4.582-12.202-6.156s-9.732-3.023-16.894-4.361l-14.328-2.692c-13.43-2.383-23.052-5.296-28.876-8.726-9.854-5.825-14.769-14.842-14.769-27.081 0-10.899 3.023-18.763 9.069-23.617s13.393-7.274 22.045-7.274c13.724 0 26.379 4.031 37.945 12.092s17.571 22.756 18.018 44.1v23.727zM495.429 120.829c11.784 1.486 20.224 3.354 25.295 5.59 9.106 3.884 13.651 9.929 13.651 18.135 0 10.003-3.464 16.894-10.407 20.704s-17.129 5.714-30.557 5.714c-15.078 0-25.743-3.736-32.009-11.194-4.472-5.516-7.458-12.989-8.959-22.389h-61.558c1.339 21.345 7.311 38.877 17.902 52.603 16.858 21.492 45.813 32.23 86.852 32.23 26.714 0 50.441-5.296 71.183-15.889s31.112-30.595 31.112-59.99v-111.922c0-7.763 0.147-17.167 0.441-28.201 0.441-8.355 1.721-14.034 3.81-17.012s5.222-5.443 9.4-7.384v-9.4h-69.391c-1.942 4.928-3.28 9.547-4.031 13.875s-1.339 9.253-1.795 14.769c-8.809-9.547-18.947-17.681-30.443-24.404-13.724-7.914-29.246-11.864-46.557-11.864-22.084 0-40.328 6.303-54.729 18.91s-21.602 30.482-21.602 53.611c0 29.994 11.562 51.706 34.698 65.138 12.68 7.311 31.336 12.533 55.96 15.666l21.712 2.692zM787.098 222.232c1.191 0 2.199-0.037 3.023-0.11s2.655-0.184 5.479-0.331v-65.363c-4.031 0.441-7.605 0.75-10.738 0.897s-5.67 0.221-7.605 0.221c-25.669 0-42.904-8.355-51.706-25.066-4.928-9.4-7.384-23.874-7.384-43.424v-116.623h-64.243v243.99h60.885v-42.528c9.854 16.269 18.432 27.385 25.743 33.351 11.945 10.003 27.462 15 46.557 15z" />
</font>
</defs>
</svg>
